<?xml version="1.0" encoding="utf-8"?>
<!-- Generator: Adobe Illustrator 28.1.0, SVG Export Plug-In . SVG Version: 6.00 Build 0)  -->
<svg version="1.1" id="Layer_1" xmlns="http://www.w3.org/2000/svg" xmlns:xlink="http://www.w3.org/1999/xlink" x="0px" y="0px"
	 viewBox="0 0 129.4 364.3" style="enable-background:new 0 0 129.4 364.3;" xml:space="preserve">
<style type="text/css">
	.st0{fill:#EDEDED;stroke:#9D9D9E;stroke-width:0.25;stroke-miterlimit:10;}
	.st1{display:none;fill:#EDEDED;stroke:#9D9D9E;stroke-width:0.25;stroke-miterlimit:10;}
	.st2{font-family:'Verdana';}
	.st3{font-size:12px;}
	.st4{font-size:11px;}
	.st5{fill:#FFFFFF;}
	.st6{fill:#231F20;}
	.st7{font-family:'Verdana-Bold';}
	.st8{font-size:14px;}
	.st9{fill:none;stroke:#231F20;stroke-miterlimit:10;}
	.st10{fill:none;stroke:#000000;stroke-width:0.7955;}
</style>
<rect class="st0" width="129.4" height="364.3"/>
<path d="M114.9,211.9h-8.4c-6.8,0-12.2-5.5-12.2-12.2v-22.8c0-6.8,5.5-12.2,12.2-12.2h8.4c6.8,0,12.2,5.5,12.2,12.2v22.8
	C127.1,206.4,121.7,211.9,114.9,211.9z"/>
<rect class="st1" width="129.4" height="364.3"/>
<g>
	<text transform="matrix(0.88 0 0 1 48.3641 214.3332)" class="st2 st3">LEVEL</text>
</g>
<g>
	<path d="M87.5,181.1h2.7c-0.1-3.8-1.2-7.5-2.8-10.6l-2.3,1.3C86.5,174.6,87.3,177.8,87.5,181.1z"/>
	<path d="M87.5,183.5c-0.1,3.4-1,6.5-2.4,9.3l2.3,1.3c1.6-3.3,2.7-6.8,2.8-10.6H87.5z"/>
	<path d="M75,161.8l1.3-2.3c-3.3-1.6-6.8-2.7-10.6-2.8v2.7C69,159.5,72.2,160.3,75,161.8z"/>
	<path d="M83.8,169.7l2.2-1.3c-2-3.1-4.7-5.8-7.8-7.8l-1.3,2.2C79.8,164.7,82.1,167,83.8,169.7z"/>
	<path d="M52,162.9l-1.3-2.2c-3.1,2-5.8,4.7-7.8,7.8l2.2,1.3C47,167,49.3,164.7,52,162.9z"/>
	<path d="M63.3,159.2v-2.7c-3.8,0.1-7.5,1.2-10.6,2.8l1.3,2.3C56.9,160.3,60.1,159.5,63.3,159.2z"/>
	<path d="M45.2,194.8l-2.2,1.3c2,3.1,4.7,5.8,7.8,7.8l1.3-2.2C49.3,199.8,47,197.5,45.2,194.8z"/>
	<path d="M77.1,201.5l1.3,2.2c3.1-2,5.8-4.7,7.8-7.8l-2.2-1.3C82.1,197.5,79.8,199.8,77.1,201.5z"/>
	<path d="M41.5,183.5h-2.7c0.1,3.8,1.2,7.5,2.8,10.6l2.3-1.3C42.6,189.9,41.8,186.7,41.5,183.5z"/>
	<path d="M44,171.8l-2.3-1.3c-1.6,3.3-2.7,6.8-2.8,10.6h2.7C41.8,177.8,42.6,174.6,44,171.8z"/>
</g>
<g>
	<text transform="matrix(0.88 0 0 1 9.0858 251.2461)" class="st2 st4">CV1</text>
</g>
<g>
	<text transform="matrix(0.88 0 0 1 5.6642 206.2382)" class="st2 st4">MIXCV</text>
</g>
<g>
	<text transform="matrix(0.88 0 0 1 101.2658 206.2382)" class="st5 st2 st4">MIX</text>
</g>
<g>
	<text transform="matrix(0.88 0 0 1 39.7013 251.2461)" class="st2 st4">CV2</text>
</g>
<g>
	<text transform="matrix(0.88 0 0 1 70.3129 251.2461)" class="st2 st4">CV3</text>
</g>
<g>
	<text transform="matrix(0.88 0 0 1 100.9319 251.2461)" class="st2 st4">CV4</text>
</g>
<g>
	<text transform="matrix(0.88 0 0 1 8.4152 298.123)" class="st2 st4">IN 1</text>
</g>
<g>
	<text transform="matrix(0.7719 0 0 1 40.3087 298.123)" class="st2 st4">IN 2</text>
</g>
<g>
	<text transform="matrix(0.88 0 0 1 69.6457 298.123)" class="st2 st4">IN 3</text>
</g>
<g>
	<text transform="matrix(0.88 0 0 1 100.261 298.123)" class="st2 st4">IN 4</text>
</g>
<path class="st6" d="M113.6,351.3H16.9c-7.2,0-13.1-5.9-13.1-13.1v-22.7c0-7.2,5.9-13.1,13.1-13.1h96.7c7.2,0,13.1,5.9,13.1,13.1
	v22.7C126.7,345.4,120.8,351.3,113.6,351.3z"/>
<g>
	<text transform="matrix(0.88 0 0 1 7.056 344.0972)" class="st5 st2 st4">CH 1</text>
</g>
<g>
	<text transform="matrix(0.88 0 0 1 37.6713 344.0972)" class="st5 st2 st4">CH 2</text>
</g>
<g>
	<text transform="matrix(0.88 0 0 1 68.2868 344.0972)" class="st5 st2 st4">CH 3</text>
</g>
<g>
	<text transform="matrix(0.88 0 0 1 98.8796 344.0972)" class="st5 st2 st4">CH 4</text>
</g>
<g>
	<text transform="matrix(1 0 0 1 30.6607 28.8984)" class="st7 st8">VCA MIX</text>
</g>
<path class="st9" d="M113.6,351.2H16.9c-7.2,0-13.1-5.9-13.1-13.1v-66.3c0-7.2,5.9-13.1,13.1-13.1h96.7c7.2,0,13.1,5.9,13.1,13.1
	v66.3C126.7,345.4,120.8,351.2,113.6,351.2z"/>
<g>
	<text transform="matrix(0.88 0 0 1 16.4541 147.5919)" class="st2 st3">1</text>
</g>
<g>
	<text transform="matrix(0.88 0 0 1 46.9874 147.5919)" class="st2 st3">2</text>
</g>
<g>
	<text transform="matrix(0.88 0 0 1 77.4925 147.5919)" class="st2 st3">3</text>
</g>
<g>
	<text transform="matrix(0.88 0 0 1 107.7458 147.5919)" class="st2 st3">4</text>
</g>
<g>
	<line class="st10" x1="29.7" y1="126.5" x2="21.7" y2="126.5"/>
	<line class="st10" x1="26.5" y1="120.3" x2="21.7" y2="120.3"/>
	<line class="st10" x1="26.5" y1="114.1" x2="21.7" y2="114.1"/>
	<line class="st10" x1="26.5" y1="108" x2="21.7" y2="108"/>
	<line class="st10" x1="26.5" y1="101.8" x2="21.7" y2="101.8"/>
	<line class="st10" x1="26.5" y1="95.6" x2="21.7" y2="95.6"/>
	<line class="st10" x1="26.5" y1="89.5" x2="21.7" y2="89.5"/>
	<line class="st10" x1="30.4" y1="83.3" x2="21.7" y2="83.3"/>
	<line class="st10" x1="26.5" y1="77.1" x2="21.7" y2="77.1"/>
	<line class="st10" x1="26.5" y1="71" x2="21.7" y2="71"/>
	<line class="st10" x1="29.7" y1="64.8" x2="21.7" y2="64.8"/>
	<line class="st10" x1="8.2" y1="126.5" x2="16.2" y2="126.5"/>
	<line class="st10" x1="11.4" y1="120.3" x2="16.2" y2="120.3"/>
	<line class="st10" x1="11.4" y1="114.1" x2="16.2" y2="114.1"/>
	<line class="st10" x1="11.4" y1="108" x2="16.2" y2="108"/>
	<line class="st10" x1="11.4" y1="101.8" x2="16.2" y2="101.8"/>
	<line class="st10" x1="11.2" y1="95.6" x2="16.2" y2="95.6"/>
	<line class="st10" x1="11.4" y1="89.5" x2="16.2" y2="89.5"/>
	<line class="st10" x1="7.3" y1="83.3" x2="16.2" y2="83.3"/>
	<line class="st10" x1="11.4" y1="77.1" x2="16.2" y2="77.1"/>
	<line class="st10" x1="11.4" y1="71" x2="16.2" y2="71"/>
	<line class="st10" x1="8.2" y1="64.8" x2="16.2" y2="64.8"/>
</g>
<g>
	<line class="st10" x1="60.3" y1="126.5" x2="52.3" y2="126.5"/>
	<line class="st10" x1="57.1" y1="120.3" x2="52.3" y2="120.3"/>
	<line class="st10" x1="57.1" y1="114.1" x2="52.3" y2="114.1"/>
	<line class="st10" x1="57.1" y1="108" x2="52.3" y2="108"/>
	<line class="st10" x1="57.1" y1="101.8" x2="52.3" y2="101.8"/>
	<line class="st10" x1="57.1" y1="95.6" x2="52.3" y2="95.6"/>
	<line class="st10" x1="57.1" y1="89.5" x2="52.3" y2="89.5"/>
	<line class="st10" x1="61" y1="83.3" x2="52.3" y2="83.3"/>
	<line class="st10" x1="57.1" y1="77.1" x2="52.3" y2="77.1"/>
	<line class="st10" x1="57.1" y1="71" x2="52.3" y2="71"/>
	<line class="st10" x1="60.3" y1="64.8" x2="52.3" y2="64.8"/>
	<line class="st10" x1="38.8" y1="126.5" x2="46.8" y2="126.5"/>
	<line class="st10" x1="42" y1="120.3" x2="46.8" y2="120.3"/>
	<line class="st10" x1="42" y1="114.1" x2="46.8" y2="114.1"/>
	<line class="st10" x1="42" y1="108" x2="46.8" y2="108"/>
	<line class="st10" x1="42" y1="101.8" x2="46.8" y2="101.8"/>
	<line class="st10" x1="41.8" y1="95.6" x2="46.8" y2="95.6"/>
	<line class="st10" x1="42" y1="89.5" x2="46.8" y2="89.5"/>
	<line class="st10" x1="37.9" y1="83.3" x2="46.8" y2="83.3"/>
	<line class="st10" x1="42" y1="77.1" x2="46.8" y2="77.1"/>
	<line class="st10" x1="42" y1="71" x2="46.8" y2="71"/>
	<line class="st10" x1="38.8" y1="64.8" x2="46.8" y2="64.8"/>
</g>
<g>
	<line class="st10" x1="90.9" y1="126.5" x2="83" y2="126.5"/>
	<line class="st10" x1="87.7" y1="120.3" x2="83" y2="120.3"/>
	<line class="st10" x1="87.7" y1="114.1" x2="83" y2="114.1"/>
	<line class="st10" x1="87.7" y1="108" x2="83" y2="108"/>
	<line class="st10" x1="87.7" y1="101.8" x2="83" y2="101.8"/>
	<line class="st10" x1="87.7" y1="95.6" x2="83" y2="95.6"/>
	<line class="st10" x1="87.7" y1="89.5" x2="83" y2="89.5"/>
	<line class="st10" x1="91.6" y1="83.3" x2="83" y2="83.3"/>
	<line class="st10" x1="87.7" y1="77.1" x2="83" y2="77.1"/>
	<line class="st10" x1="87.7" y1="71" x2="83" y2="71"/>
	<line class="st10" x1="90.9" y1="64.8" x2="83" y2="64.8"/>
	<line class="st10" x1="69.4" y1="126.5" x2="77.4" y2="126.5"/>
	<line class="st10" x1="72.6" y1="120.3" x2="77.4" y2="120.3"/>
	<line class="st10" x1="72.6" y1="114.1" x2="77.4" y2="114.1"/>
	<line class="st10" x1="72.6" y1="108" x2="77.4" y2="108"/>
	<line class="st10" x1="72.6" y1="101.8" x2="77.4" y2="101.8"/>
	<line class="st10" x1="72.5" y1="95.6" x2="77.4" y2="95.6"/>
	<line class="st10" x1="72.6" y1="89.5" x2="77.4" y2="89.5"/>
	<line class="st10" x1="68.5" y1="83.3" x2="77.4" y2="83.3"/>
	<line class="st10" x1="72.6" y1="77.1" x2="77.4" y2="77.1"/>
	<line class="st10" x1="72.6" y1="71" x2="77.4" y2="71"/>
	<line class="st10" x1="69.4" y1="64.8" x2="77.4" y2="64.8"/>
</g>
<g>
	<line class="st10" x1="121.5" y1="126.5" x2="113.6" y2="126.5"/>
	<line class="st10" x1="118.3" y1="120.3" x2="113.6" y2="120.3"/>
	<line class="st10" x1="118.3" y1="114.1" x2="113.6" y2="114.1"/>
	<line class="st10" x1="118.3" y1="108" x2="113.6" y2="108"/>
	<line class="st10" x1="118.3" y1="101.8" x2="113.6" y2="101.8"/>
	<line class="st10" x1="118.3" y1="95.6" x2="113.6" y2="95.6"/>
	<line class="st10" x1="118.3" y1="89.5" x2="113.6" y2="89.5"/>
	<line class="st10" x1="122.3" y1="83.3" x2="113.6" y2="83.3"/>
	<line class="st10" x1="118.3" y1="77.1" x2="113.6" y2="77.1"/>
	<line class="st10" x1="118.3" y1="71" x2="113.6" y2="71"/>
	<line class="st10" x1="121.5" y1="64.8" x2="113.6" y2="64.8"/>
	<line class="st10" x1="100.1" y1="126.5" x2="108" y2="126.5"/>
	<line class="st10" x1="103.2" y1="120.3" x2="108" y2="120.3"/>
	<line class="st10" x1="103.2" y1="114.1" x2="108" y2="114.1"/>
	<line class="st10" x1="103.2" y1="108" x2="108" y2="108"/>
	<line class="st10" x1="103.2" y1="101.8" x2="108" y2="101.8"/>
	<line class="st10" x1="103.1" y1="95.6" x2="108" y2="95.6"/>
	<line class="st10" x1="103.2" y1="89.5" x2="108" y2="89.5"/>
	<line class="st10" x1="99.1" y1="83.3" x2="108" y2="83.3"/>
	<line class="st10" x1="103.2" y1="77.1" x2="108" y2="77.1"/>
	<line class="st10" x1="103.2" y1="71" x2="108" y2="71"/>
	<line class="st10" x1="100.1" y1="64.8" x2="108" y2="64.8"/>
</g>
</svg>
