<?xml version="1.0" encoding="utf-8"?>
<!-- Generator: Adobe Illustrator 28.1.0, SVG Export Plug-In . SVG Version: 6.00 Build 0)  -->
<svg version="1.1" id="Layer_1" xmlns="http://www.w3.org/2000/svg" xmlns:xlink="http://www.w3.org/1999/xlink" x="0px" y="0px"
	 viewBox="0 0 129.4 364.3" style="enable-background:new 0 0 129.4 364.3;" xml:space="preserve">
<style type="text/css">
	.st0{fill:#EDEDED;stroke:#9D9D9E;stroke-width:0.25;stroke-miterlimit:10;}
	.st1{font-family:'Verdana';}
	.st2{font-size:12px;}
	.st3{font-size:11px;}
	.st4{fill:#231F20;}
	.st5{fill:#FFFFFF;}
	.st6{font-family:'Verdana-Bold';}
	.st7{font-size:14px;}
	.st8{fill:none;stroke:#231F20;stroke-miterlimit:10;}
	.st9{clip-path:url(#SVGID_00000147217613095509921340000006051320601119295376_);}
	.st10{clip-path:url(#SVGID_00000143600654869918266750000017533781654326446491_);}
	.st11{clip-path:url(#SVGID_00000159471029239427188640000009229269187688070547_);}
	.st12{clip-path:url(#SVGID_00000029035369031317642610000000617840979589512088_);}
	.st13{clip-path:url(#SVGID_00000024004135748349419140000001437907001758223540_);}
	.st14{clip-path:url(#SVGID_00000069360931837907753710000003381764440217740466_);}
	.st15{clip-path:url(#SVGID_00000176765537598116832350000015505147653227334277_);}
	.st16{clip-path:url(#SVGID_00000154389722128928537520000004106442139911749780_);}
	.st17{clip-path:url(#SVGID_00000027571668458558909560000017948391591121355412_);}
	.st18{clip-path:url(#SVGID_00000003801774437450492050000018204428809068192130_);}
	.st19{clip-path:url(#SVGID_00000107546757573574192250000001261231101035671457_);}
	.st20{clip-path:url(#SVGID_00000085929492116992736490000007790976891002566582_);}
	.st21{clip-path:url(#SVGID_00000181064995487482111780000003305739976809885887_);}
	.st22{clip-path:url(#SVGID_00000070831157336713644400000017247699569715620787_);}
	.st23{clip-path:url(#SVGID_00000169544809058359368140000001674388881179993748_);}
	.st24{clip-path:url(#SVGID_00000147198397823798007680000009799708888273351578_);}
	.st25{clip-path:url(#SVGID_00000005953922687241245700000014450181599509563284_);}
	.st26{clip-path:url(#SVGID_00000133489897650623043320000003194222077313706373_);}
	.st27{clip-path:url(#SVGID_00000092438438318437333330000015938518442792984242_);}
	.st28{clip-path:url(#SVGID_00000083086334997541518020000008701014275804892058_);}
	.st29{clip-path:url(#SVGID_00000143597861175341470860000014458823825214855351_);}
	.st30{clip-path:url(#SVGID_00000151511509004910169270000008256950021269124029_);}
	.st31{display:none;}
	.st32{display:inline;fill:#FF00FF;}
	.st33{display:inline;fill:#FF0000;}
	.st34{display:inline;fill:#00FF00;}
	.st35{display:inline;fill:#0000FF;}
</style>
<rect class="st0" width="129.4" height="364.3"/>
<g>
	<text transform="matrix(0.88 0 0 1 37.248 126.4277)" class="st1 st2">Frequency</text>
</g>
<g>
	<text transform="matrix(0.88 0 0 1 33.5928 195.4399)" class="st1 st2">Pulse Width</text>
</g>
<g>
	<path d="M94,84h3.4c-0.1-4.9-1.5-9.5-3.6-13.5l-3,1.6C92.8,75.7,93.8,79.9,94,84z"/>
	<path d="M94,87c-0.1,4.3-1.3,8.3-3.1,11.9l3,1.6c2.1-4.1,3.4-8.6,3.6-13.5H94z"/>
	<path d="M78.1,59.4l1.6-3c-4.1-2.1-8.6-3.4-13.5-3.6v3.4C70.6,56.6,74.6,57.7,78.1,59.4z"/>
	<path d="M89.4,69.7l2.8-1.6c-2.5-4-5.9-7.4-9.9-9.9L80.7,61C84.2,63.3,87.2,66.3,89.4,69.7z"/>
	<path d="M48.9,60.9l-1.6-2.8c-4,2.5-7.4,5.9-9.9,9.9l2.8,1.6C42.6,66.3,45.5,63.3,48.9,60.9z"/>
	<path d="M63.3,56.3v-3.4c-4.9,0.1-9.5,1.5-13.5,3.6l1.6,3C55.2,57.7,59.2,56.6,63.3,56.3z"/>
	<path d="M40.2,101.5l-2.8,1.6c2.5,4,5.9,7.4,9.9,9.9l1.6-2.8C45.5,107.9,42.6,104.9,40.2,101.5z"/>
	<path d="M80.8,110.1l1.6,2.8c4-2.5,7.4-5.9,9.9-9.9l-2.8-1.6C87.2,104.9,84.2,107.9,80.8,110.1z"/>
	<path d="M35.6,87h-3.4c0.1,4.9,1.5,9.5,3.6,13.5l3-1.6C36.9,95.3,35.9,91.3,35.6,87z"/>
	<path d="M38.7,72.2l-3-1.6c-2.1,4.1-3.4,8.6-3.6,13.5h3.4C35.9,79.9,36.9,75.7,38.7,72.2z"/>
</g>
<g>
	<path d="M87.8,159.2h2.7c-0.1-3.8-1.2-7.5-2.8-10.6l-2.3,1.3C86.8,152.7,87.6,155.9,87.8,159.2z"/>
	<path d="M87.8,161.6c-0.1,3.4-1,6.5-2.4,9.3l2.3,1.3c1.6-3.3,2.7-6.8,2.8-10.6H87.8z"/>
	<path d="M75.3,139.9l1.3-2.3c-3.3-1.6-6.8-2.7-10.6-2.8v2.7C69.3,137.6,72.5,138.4,75.3,139.9z"/>
	<path d="M84.1,147.8l2.2-1.3c-2-3.1-4.7-5.8-7.8-7.8l-1.3,2.2C80.1,142.8,82.4,145.1,84.1,147.8z"/>
	<path d="M52.3,141l-1.3-2.2c-3.1,2-5.8,4.7-7.8,7.8l2.2,1.3C47.3,145.1,49.6,142.8,52.3,141z"/>
	<path d="M63.6,137.3v-2.7c-3.8,0.1-7.5,1.2-10.6,2.8l1.3,2.3C57.2,138.4,60.4,137.6,63.6,137.3z"/>
	<path d="M45.5,172.9l-2.2,1.3c2,3.1,4.7,5.8,7.8,7.8l1.3-2.2C49.6,177.9,47.3,175.6,45.5,172.9z"/>
	<path d="M77.4,179.6l1.3,2.2c3.1-2,5.8-4.7,7.8-7.8l-2.2-1.3C82.4,175.6,80.1,177.9,77.4,179.6z"/>
	<path d="M41.8,161.6h-2.7c0.1,3.8,1.2,7.5,2.8,10.6l2.3-1.3C42.9,168,42.1,164.8,41.8,161.6z"/>
	<path d="M44.3,149.9l-2.3-1.3c-1.6,3.3-2.7,6.8-2.8,10.6h2.7C42.1,155.9,42.9,152.7,44.3,149.9z"/>
</g>
<g>
	<text transform="matrix(0.88 0 0 1 11.957 251.2461)" class="st1 st3">FM</text>
</g>
<g>
	<text transform="matrix(0.88 0 0 1 39.9053 251.2461)" class="st1 st3">LFM</text>
</g>
<g>
	<text transform="matrix(0.88 0 0 1 67.189 251.2461)" class="st1 st3">SOFT</text>
</g>
<g>
	<text transform="matrix(0.88 0 0 1 99.7021 251.2461)" class="st1 st3">PWM</text>
</g>
<g>
	<text transform="matrix(0.88 0 0 1 11.957 298.123)" class="st1 st3">FM</text>
</g>
<g>
	<text transform="matrix(0.7719 0 0 1 35.0786 298.123)" class="st1 st3">V/OCT</text>
</g>
<g>
	<text transform="matrix(0.88 0 0 1 66.8594 298.123)" class="st1 st3">SYNC</text>
</g>
<g>
	<text transform="matrix(0.88 0 0 1 99.7021 298.123)" class="st1 st3">PWM</text>
</g>
<path class="st4" d="M113.6,351.3H16.9c-7.2,0-13.1-5.9-13.1-13.1v-22.7c0-7.2,5.9-13.1,13.1-13.1h96.7c7.2,0,13.1,5.9,13.1,13.1
	v22.7C126.7,345.4,120.8,351.3,113.6,351.3z"/>
<g>
	<text transform="matrix(0.88 0 0 1 9.8516 344.0972)" class="st5 st1 st3">SIN</text>
</g>
<g>
	<text transform="matrix(0.88 0 0 1 41.0752 344.0972)" class="st5 st1 st3">TRI</text>
</g>
<g>
	<text transform="matrix(0.88 0 0 1 68.9082 344.0972)" class="st5 st1 st3">SAW</text>
</g>
<g>
	<text transform="matrix(0.88 0 0 1 100.9785 344.0972)" class="st5 st1 st3">SQR</text>
</g>
<g>
	<text transform="matrix(1 0 0 1 48.3379 28.8984)" class="st6 st7">VCO</text>
</g>
<path class="st8" d="M113.6,351.2H16.9c-7.2,0-13.1-5.9-13.1-13.1v-66.3c0-7.2,5.9-13.1,13.1-13.1h96.7c7.2,0,13.1,5.9,13.1,13.1
	v66.3C126.7,345.4,120.8,351.2,113.6,351.2z"/>
<g id="pips_-_fewest_00000170987537802816162730000014627788305749528722_">
	<g>
		<g>
			<g>
				<defs>
					<rect id="SVGID_1_" x="96.8" y="214.6" width="27.8" height="25.6"/>
				</defs>
				<clipPath id="SVGID_00000051363940993069593580000002485000057957959317_">
					<use xlink:href="#SVGID_1_"  style="overflow:visible;"/>
				</clipPath>
				<g style="clip-path:url(#SVGID_00000051363940993069593580000002485000057957959317_);">
					<g>
						<g>
							<defs>
								<rect id="SVGID_00000151505615654131152550000006214798278693578126_" x="96.8" y="214.6" width="27.8" height="25.6"/>
							</defs>
							<clipPath id="SVGID_00000013899553967035888790000012156123834482616759_">
								<use xlink:href="#SVGID_00000151505615654131152550000006214798278693578126_"  style="overflow:visible;"/>
							</clipPath>
							<path style="clip-path:url(#SVGID_00000013899553967035888790000012156123834482616759_);" d="M116.4,217.4l0.7-1.2
								c-1.7-0.9-3.7-1.5-5.8-1.5v1.4C113.2,216.1,114.9,216.6,116.4,217.4"/>
						</g>
					</g>
					<g>
						<g>
							<defs>
								<rect id="SVGID_00000078039256395626860470000003658976802109633979_" x="96.8" y="214.6" width="27.8" height="25.6"/>
							</defs>
							<clipPath id="SVGID_00000058548113456671980090000013820755005357493634_">
								<use xlink:href="#SVGID_00000078039256395626860470000003658976802109633979_"  style="overflow:visible;"/>
							</clipPath>
							<path style="clip-path:url(#SVGID_00000058548113456671980090000013820755005357493634_);" d="M121.2,221.7l1.2-0.7
								c-1.1-1.7-2.5-3.1-4.2-4.2l-0.7,1.2C119,218.9,120.3,220.2,121.2,221.7"/>
						</g>
					</g>
					<g>
						<g>
							<defs>
								<rect id="SVGID_00000002355187975665485340000002937545581505053602_" x="96.8" y="214.6" width="27.8" height="25.6"/>
							</defs>
							<clipPath id="SVGID_00000067924366589123557320000013809366092915988120_">
								<use xlink:href="#SVGID_00000002355187975665485340000002937545581505053602_"  style="overflow:visible;"/>
							</clipPath>
							<path style="clip-path:url(#SVGID_00000067924366589123557320000013809366092915988120_);" d="M103.9,218l-0.7-1.2
								c-1.7,1.1-3.1,2.5-4.2,4.2l1.2,0.7C101.2,220.2,102.5,218.9,103.9,218"/>
						</g>
					</g>
					<g>
						<g>
							<defs>
								<rect id="SVGID_00000168830681039856673520000006668099567132468147_" x="96.8" y="214.6" width="27.8" height="25.6"/>
							</defs>
							<clipPath id="SVGID_00000069356532212598314960000017214111164077967490_">
								<use xlink:href="#SVGID_00000168830681039856673520000006668099567132468147_"  style="overflow:visible;"/>
							</clipPath>
							<path style="clip-path:url(#SVGID_00000069356532212598314960000017214111164077967490_);" d="M123.2,227.8h1.4
								c-0.1-2.1-0.6-4-1.5-5.8l-1.2,0.7C122.6,224.3,123.1,226,123.2,227.8"/>
						</g>
					</g>
					<g>
						<g>
							<defs>
								<rect id="SVGID_00000172440589918885969630000007962002681297866164_" x="96.8" y="214.6" width="27.8" height="25.6"/>
							</defs>
							<clipPath id="SVGID_00000032645497301049160200000018103274164549226156_">
								<use xlink:href="#SVGID_00000172440589918885969630000007962002681297866164_"  style="overflow:visible;"/>
							</clipPath>
							<path style="clip-path:url(#SVGID_00000032645497301049160200000018103274164549226156_);" d="M110.1,216v-1.4
								c-2.1,0.1-4,0.6-5.8,1.5l0.7,1.2C106.6,216.6,108.3,216.1,110.1,216"/>
						</g>
					</g>
					<g>
						<g>
							<defs>
								<rect id="SVGID_00000029031061994824962650000009453313685427559081_" x="96.8" y="214.6" width="27.8" height="25.6"/>
							</defs>
							<clipPath id="SVGID_00000060000355783313041720000013030453008794606483_">
								<use xlink:href="#SVGID_00000029031061994824962650000009453313685427559081_"  style="overflow:visible;"/>
							</clipPath>
							<path style="clip-path:url(#SVGID_00000060000355783313041720000013030453008794606483_);" d="M100.2,235.3L99,236
								c1.1,1.7,2.5,3.1,4.2,4.2l0.7-1.2C102.5,238,101.2,236.7,100.2,235.3"/>
						</g>
					</g>
					<g>
						<g>
							<defs>
								<rect id="SVGID_00000013888291010161565640000003873581952051634306_" x="96.8" y="214.6" width="27.8" height="25.6"/>
							</defs>
							<clipPath id="SVGID_00000029768022362408739200000005084241522749695627_">
								<use xlink:href="#SVGID_00000013888291010161565640000003873581952051634306_"  style="overflow:visible;"/>
							</clipPath>
							<path style="clip-path:url(#SVGID_00000029768022362408739200000005084241522749695627_);" d="M117.5,239l0.7,1.2
								c1.7-1.1,3.1-2.5,4.2-4.2l-1.2-0.7C120.2,236.7,119,238,117.5,239"/>
						</g>
					</g>
					<g>
						<g>
							<defs>
								<rect id="SVGID_00000106111250884059268010000017079280230242583216_" x="96.8" y="214.6" width="27.8" height="25.6"/>
							</defs>
							<clipPath id="SVGID_00000139289030394344230360000007926098769157103280_">
								<use xlink:href="#SVGID_00000106111250884059268010000017079280230242583216_"  style="overflow:visible;"/>
							</clipPath>
							<path style="clip-path:url(#SVGID_00000139289030394344230360000007926098769157103280_);" d="M123.2,229.1
								c-0.1,1.8-0.6,3.5-1.4,5.1l1.2,0.7c0.9-1.7,1.5-3.7,1.5-5.8H123.2z"/>
						</g>
					</g>
					<g>
						<g>
							<defs>
								<rect id="SVGID_00000127732490056256074220000016570087272175991938_" x="96.8" y="214.6" width="27.8" height="25.6"/>
							</defs>
							<clipPath id="SVGID_00000160178154149398003810000002474418794444899978_">
								<use xlink:href="#SVGID_00000127732490056256074220000016570087272175991938_"  style="overflow:visible;"/>
							</clipPath>
							<path style="clip-path:url(#SVGID_00000160178154149398003810000002474418794444899978_);" d="M98.2,229.1h-1.4
								c0.1,2.1,0.6,4,1.5,5.8l1.2-0.7C98.8,232.6,98.3,230.9,98.2,229.1"/>
						</g>
					</g>
					<g>
						<g>
							<defs>
								<rect id="SVGID_00000064312373407706875250000018244517357530217611_" x="96.8" y="214.6" width="27.8" height="25.6"/>
							</defs>
							<clipPath id="SVGID_00000027595636556575249430000000020215488332968094_">
								<use xlink:href="#SVGID_00000064312373407706875250000018244517357530217611_"  style="overflow:visible;"/>
							</clipPath>
							<path style="clip-path:url(#SVGID_00000027595636556575249430000000020215488332968094_);" d="M99.6,222.8l-1.2-0.7
								c-0.9,1.7-1.5,3.7-1.5,5.8h1.4C98.3,226,98.8,224.3,99.6,222.8"/>
						</g>
					</g>
				</g>
			</g>
		</g>
	</g>
</g>
<g id="pips_-_fewest_00000003082445726815061340000011822725961358549125_">
	<g>
		<g>
			<g>
				<defs>
					<rect id="SVGID_00000062168113380085244930000005725532706040706458_" x="4.8" y="214.6" width="27.8" height="25.6"/>
				</defs>
				<clipPath id="SVGID_00000070097782534105081850000014309281874205996436_">
					<use xlink:href="#SVGID_00000062168113380085244930000005725532706040706458_"  style="overflow:visible;"/>
				</clipPath>
				<g style="clip-path:url(#SVGID_00000070097782534105081850000014309281874205996436_);">
					<g>
						<g>
							<defs>
								<rect id="SVGID_00000131339046800373098960000014475345929230589850_" x="4.8" y="214.6" width="27.8" height="25.6"/>
							</defs>
							<clipPath id="SVGID_00000060030854824890107460000002131806002708159648_">
								<use xlink:href="#SVGID_00000131339046800373098960000014475345929230589850_"  style="overflow:visible;"/>
							</clipPath>
							<path style="clip-path:url(#SVGID_00000060030854824890107460000002131806002708159648_);" d="M24.4,217.4l0.7-1.2
								c-1.7-0.9-3.7-1.5-5.8-1.5v1.4C21.1,216.1,22.9,216.6,24.4,217.4"/>
						</g>
					</g>
					<g>
						<g>
							<defs>
								<rect id="SVGID_00000130627329648896126800000002435101194971978656_" x="4.8" y="214.6" width="27.8" height="25.6"/>
							</defs>
							<clipPath id="SVGID_00000165918005729296919200000014641830513155027333_">
								<use xlink:href="#SVGID_00000130627329648896126800000002435101194971978656_"  style="overflow:visible;"/>
							</clipPath>
							<path style="clip-path:url(#SVGID_00000165918005729296919200000014641830513155027333_);" d="M29.2,221.7l1.2-0.7
								c-1.1-1.7-2.5-3.1-4.2-4.2l-0.7,1.2C27,218.9,28.2,220.2,29.2,221.7"/>
						</g>
					</g>
					<g>
						<g>
							<defs>
								<rect id="SVGID_00000052071278319498544810000008219413861578373038_" x="4.8" y="214.6" width="27.8" height="25.6"/>
							</defs>
							<clipPath id="SVGID_00000093169605899613440740000009299682277307011201_">
								<use xlink:href="#SVGID_00000052071278319498544810000008219413861578373038_"  style="overflow:visible;"/>
							</clipPath>
							<path style="clip-path:url(#SVGID_00000093169605899613440740000009299682277307011201_);" d="M11.9,218l-0.7-1.2
								c-1.7,1.1-3.1,2.5-4.2,4.2l1.2,0.7C9.2,220.2,10.4,218.9,11.9,218"/>
						</g>
					</g>
					<g>
						<g>
							<defs>
								<rect id="SVGID_00000093172516246631639410000006526803379486201760_" x="4.8" y="214.6" width="27.8" height="25.6"/>
							</defs>
							<clipPath id="SVGID_00000085970598335122982100000018090729681377862308_">
								<use xlink:href="#SVGID_00000093172516246631639410000006526803379486201760_"  style="overflow:visible;"/>
							</clipPath>
							<path style="clip-path:url(#SVGID_00000085970598335122982100000018090729681377862308_);" d="M31.2,227.8h1.4
								c-0.1-2.1-0.6-4-1.5-5.8l-1.2,0.7C30.6,224.3,31.1,226,31.2,227.8"/>
						</g>
					</g>
					<g>
						<g>
							<defs>
								<rect id="SVGID_00000171690254967176640240000000894217367073658788_" x="4.8" y="214.6" width="27.8" height="25.6"/>
							</defs>
							<clipPath id="SVGID_00000155134734832783520630000012328213085910264708_">
								<use xlink:href="#SVGID_00000171690254967176640240000000894217367073658788_"  style="overflow:visible;"/>
							</clipPath>
							<path style="clip-path:url(#SVGID_00000155134734832783520630000012328213085910264708_);" d="M18.1,216v-1.4
								c-2.1,0.1-4,0.6-5.8,1.5l0.7,1.2C14.5,216.6,16.2,216.1,18.1,216"/>
						</g>
					</g>
					<g>
						<g>
							<defs>
								<rect id="SVGID_00000125561711107653327510000006889887583558558643_" x="4.8" y="214.6" width="27.8" height="25.6"/>
							</defs>
							<clipPath id="SVGID_00000118362641655696739350000004275173278550185882_">
								<use xlink:href="#SVGID_00000125561711107653327510000006889887583558558643_"  style="overflow:visible;"/>
							</clipPath>
							<path style="clip-path:url(#SVGID_00000118362641655696739350000004275173278550185882_);" d="M8.2,235.3L7,236
								c1.1,1.7,2.5,3.1,4.2,4.2l0.7-1.2C10.4,238,9.2,236.7,8.2,235.3"/>
						</g>
					</g>
					<g>
						<g>
							<defs>
								<rect id="SVGID_00000036248862249159317650000001938219207002059703_" x="4.8" y="214.6" width="27.8" height="25.6"/>
							</defs>
							<clipPath id="SVGID_00000178892818055899879050000004170094311204148635_">
								<use xlink:href="#SVGID_00000036248862249159317650000001938219207002059703_"  style="overflow:visible;"/>
							</clipPath>
							<path style="clip-path:url(#SVGID_00000178892818055899879050000004170094311204148635_);" d="M25.5,239l0.7,1.2
								c1.7-1.1,3.1-2.5,4.2-4.2l-1.2-0.7C28.2,236.7,27,238,25.5,239"/>
						</g>
					</g>
					<g>
						<g>
							<defs>
								<rect id="SVGID_00000020384308086635531590000013160995993190805634_" x="4.8" y="214.6" width="27.8" height="25.6"/>
							</defs>
							<clipPath id="SVGID_00000155851066383958945160000012893365593562500740_">
								<use xlink:href="#SVGID_00000020384308086635531590000013160995993190805634_"  style="overflow:visible;"/>
							</clipPath>
							<path style="clip-path:url(#SVGID_00000155851066383958945160000012893365593562500740_);" d="M31.2,229.1
								c-0.1,1.8-0.6,3.5-1.4,5.1l1.2,0.7c0.9-1.7,1.5-3.7,1.5-5.8H31.2z"/>
						</g>
					</g>
					<g>
						<g>
							<defs>
								<rect id="SVGID_00000081623575528789100250000012624821530444497829_" x="4.8" y="214.6" width="27.8" height="25.6"/>
							</defs>
							<clipPath id="SVGID_00000000208775669767843100000000137511819600666300_">
								<use xlink:href="#SVGID_00000081623575528789100250000012624821530444497829_"  style="overflow:visible;"/>
							</clipPath>
							<path style="clip-path:url(#SVGID_00000000208775669767843100000000137511819600666300_);" d="M6.2,229.1H4.8
								c0.1,2.1,0.6,4,1.5,5.8l1.2-0.7C6.8,232.6,6.3,230.9,6.2,229.1"/>
						</g>
					</g>
					<g>
						<g>
							<defs>
								<rect id="SVGID_00000069388248474325968350000009545480395713038757_" x="4.8" y="214.6" width="27.8" height="25.6"/>
							</defs>
							<clipPath id="SVGID_00000141439624284583336680000018187071435815639173_">
								<use xlink:href="#SVGID_00000069388248474325968350000009545480395713038757_"  style="overflow:visible;"/>
							</clipPath>
							<path style="clip-path:url(#SVGID_00000141439624284583336680000018187071435815639173_);" d="M7.6,222.8l-1.2-0.7
								c-0.9,1.7-1.5,3.7-1.5,5.8h1.4C6.3,226,6.8,224.3,7.6,222.8"/>
						</g>
					</g>
				</g>
			</g>
		</g>
	</g>
</g>
<g id="components" class="st31">
	<circle id="Wave_Light" class="st32" cx="88" cy="46.5" r="2.9"/>
	<circle id="Pulse_Width" class="st33" cx="64.7" cy="159.6" r="16.1"/>
	<circle id="Soft_Button" class="st33" cx="80" cy="228.1" r="8"/>
	<circle id="LFM_Button" class="st33" cx="49.4" cy="228.1" r="8"/>
	<circle id="Sync_Input" class="st34" cx="80" cy="274.2" r="11.3"/>
	<circle id="Tri_Out" class="st35" cx="49.4" cy="320.2" r="11.3"/>
	
		<ellipse id="Sin_Out" transform="matrix(0.9998 -2.040440e-02 2.040440e-02 0.9998 -6.5293 0.4482)" class="st35" cx="18.7" cy="320.2" rx="11.3" ry="11.3"/>
	<circle id="Saw_Out" class="st35" cx="80" cy="320.2" r="11.3"/>
	<circle id="V_x2F_oct_input" class="st34" cx="49.4" cy="274.2" r="11.3"/>
	<circle id="PWM_Input" class="st34" cx="110.8" cy="274.2" r="11.3"/>
	<circle id="Square_Out" class="st35" cx="110.7" cy="320.2" r="11.3"/>
	<circle id="PWM_Atten." class="st33" cx="110.7" cy="228.1" r="8"/>
	<circle id="Frequency" class="st33" cx="64.8" cy="84.4" r="16.1"/>
	
		<ellipse id="FM_Input" transform="matrix(0.9998 -2.040440e-02 2.040440e-02 0.9998 -5.5907 0.4386)" class="st34" cx="18.7" cy="274.2" rx="11.3" ry="11.3"/>
	<circle id="FM_Atten." class="st33" cx="18.7" cy="228.1" r="8"/>
</g>
</svg>
