<?xml version="1.0" encoding="UTF-8"?><svg xmlns="http://www.w3.org/2000/svg" width="20.41mm" height="128.59mm" viewBox="0 0 57.85 364.5"><g id="faceplate"><rect x=".12" y=".12" width="57.6" height="364.25" style="fill:#ededed; stroke:#9d9d9e; stroke-miterlimit:10; stroke-width:.25px;"/><path d="M17.44,17.02l-1.29,1.43c-.51-.14-1.01-.32-1.51-.55-.5-.23-1-.52-1.5-.85-.39-.26-.68-.51-.88-.75-.34-.15-.66-.38-.97-.69-.31-.31-.56-.71-.75-1.19s-.29-1.04-.29-1.68c0-.67.13-1.3.38-1.88.25-.58.64-1.05,1.17-1.41.52-.36,1.16-.53,1.92-.53.58,0,1.09.1,1.53.31.44.21.8.49,1.09.85.28.36.5.76.63,1.22.14.46.21.94.21,1.43,0,.6-.09,1.14-.26,1.61-.18.47-.41.86-.69,1.17-.28.31-.61.56-.96.74.33.18.66.33.99.45.33.12.71.18,1.14.18l.05.12ZM15.3,12.75c0-.28-.03-.53-.1-.77-.07-.23-.17-.43-.31-.6-.14-.17-.3-.3-.5-.4-.2-.09-.42-.14-.68-.14-.49,0-.88.18-1.16.53s-.42.81-.42,1.38.14,1.03.42,1.38c.28.35.67.53,1.16.53.34,0,.62-.08.86-.24.24-.16.42-.39.54-.68.12-.29.19-.62.19-.99Z" style="stroke-width:0px;"/><path d="M24.69,13.15c0,.64-.1,1.18-.29,1.63-.2.45-.45.8-.77,1.07-.32.26-.67.45-1.04.56s-.74.17-1.11.17c-.52,0-1.02-.11-1.51-.32-.49-.21-.9-.58-1.23-1.1-.33-.52-.49-1.19-.49-2.01v-4.11h1.84v3.53c0,.49.06.9.17,1.22.12.32.28.56.48.7.21.15.45.22.73.22s.51-.07.72-.22c.21-.15.37-.38.49-.7s.17-.72.17-1.21v-3.54h1.84v4.11Z" style="stroke-width:0px;"/><path d="M32.83,16.48h-1.88l-.5-1.51h-2.65l-.51,1.51h-1.88l2.7-7.44h2.03l2.69,7.44ZM30.03,13.68l-.89-2.72-.9,2.72h1.8Z" style="stroke-width:0px;"/><path d="M40.27,16.48h-1.64l-3.17-4.15v4.15h-1.82v-7.44h1.63l3.16,4.12v-4.12h1.84v7.44Z" style="stroke-width:0px;"/><path d="M47.66,10.85h-2.24v5.63h-1.84v-5.63h-2.24v-1.81h6.31v1.81Z" style="stroke-width:0px;"/><path d="M45.86,66.03h-1l-.69-2.23h-3.04l-.69,2.23h-.95l2.56-8h1.25l2.56,8ZM43.89,62.89l-1.23-3.93-1.24,3.93h2.47Z" style="stroke-width:0px;"/><path d="M45.62,26.43c0,.4-.07.75-.2,1.05-.13.3-.31.56-.53.75-.26.24-.56.4-.87.5s-.72.15-1.21.15h-2.5v-8h2.08c.51,0,.9.02,1.15.06.26.04.5.13.73.27.26.15.45.35.56.59.12.24.17.53.17.87,0,.38-.08.7-.25.97-.17.27-.4.48-.68.64v.04c.48.11.85.35,1.12.71.27.36.41.82.41,1.38ZM44.05,22.83c0-.19-.03-.36-.08-.49s-.15-.24-.27-.32c-.15-.1-.33-.16-.54-.18-.21-.02-.47-.04-.79-.04h-1.12v2.31h1.21c.29,0,.53-.02.7-.05.17-.03.33-.1.48-.21s.25-.25.31-.42c.06-.17.09-.37.09-.6ZM44.65,26.48c0-.32-.04-.58-.13-.77s-.24-.35-.46-.48c-.15-.09-.33-.15-.55-.17-.22-.03-.48-.04-.79-.04h-1.47v2.98h1.24c.41,0,.75-.02,1.01-.07.26-.05.48-.14.64-.27.18-.14.31-.3.39-.48s.12-.41.12-.69Z" style="stroke-width:0px;"/><path d="M20.64,276.52c.29.36.51.8.66,1.32s.23,1.11.23,1.77-.08,1.25-.23,1.77c-.16.52-.37.96-.65,1.3-.29.36-.63.63-1.03.82-.4.18-.85.27-1.35.27s-.94-.09-1.35-.28c-.4-.19-.75-.46-1.03-.81-.28-.36-.5-.79-.65-1.31s-.23-1.1-.23-1.77.08-1.24.23-1.75.37-.96.66-1.33c.28-.35.62-.62,1.03-.8.41-.19.86-.28,1.34-.28s.96.09,1.36.28.74.46,1.02.8ZM20.56,279.6c0-1.04-.21-1.84-.61-2.4s-.97-.85-1.68-.85-1.28.28-1.69.85c-.41.56-.61,1.37-.61,2.4s.21,1.85.62,2.41.97.84,1.67.84,1.26-.28,1.67-.84c.41-.56.62-1.36.62-2.41Z" style="stroke-width:0px;"/><path d="M25.78,276.21h-.05c-.1-.03-.23-.06-.38-.1-.16-.03-.3-.05-.42-.05-.38,0-.66.1-.83.29-.17.19-.26.54-.26,1.04v.2h1.6v.85h-1.57v5.15h-.89v-5.15h-.6v-.85h.6v-.2c0-.71.16-1.26.47-1.64s.76-.57,1.35-.57c.2,0,.38.01.54.03s.3.05.44.07v.92Z" style="stroke-width:0px;"/><path d="M29.19,276.21h-.05c-.1-.03-.23-.06-.38-.1-.16-.03-.3-.05-.42-.05-.38,0-.66.1-.83.29-.17.19-.26.54-.26,1.04v.2h1.6v.85h-1.57v5.15h-.89v-5.15h-.6v-.85h.6v-.2c0-.71.16-1.26.47-1.64s.76-.57,1.35-.57c.2,0,.38.01.54.03s.3.05.44.07v.92Z" style="stroke-width:0px;"/><path d="M33.52,281.87c0,.55-.2,1-.6,1.35-.4.35-.94.53-1.63.53-.39,0-.75-.05-1.08-.16s-.6-.22-.82-.35v-1.13h.05c.28.24.59.43.94.57.34.14.67.21.99.21.39,0,.7-.07.92-.21.22-.14.33-.37.33-.68,0-.24-.06-.42-.18-.54-.12-.12-.35-.22-.69-.31-.13-.03-.29-.07-.49-.11s-.39-.09-.55-.14c-.46-.14-.79-.34-.99-.61-.19-.27-.29-.6-.29-1,0-.25.04-.48.13-.7s.23-.41.41-.59c.18-.17.4-.3.67-.4.27-.1.58-.15.92-.15.31,0,.63.04.96.13.32.09.59.19.81.32v1.08h-.05c-.23-.19-.5-.35-.83-.48-.33-.13-.64-.2-.96-.2s-.6.07-.82.21c-.22.14-.34.35-.34.63,0,.25.07.43.2.56.13.12.35.23.64.31.16.04.35.09.55.13s.37.08.51.12c.41.11.73.29.95.55.22.27.34.62.34,1.05Z" style="stroke-width:0px;"/><path d="M39.21,280.7h-3.89c0,.37.05.69.15.96s.23.5.4.67c.16.17.36.3.58.39.23.09.47.13.75.13.36,0,.72-.08,1.08-.24.36-.16.62-.32.78-.48h.05v1.1c-.3.14-.6.26-.92.36-.31.1-.64.14-.98.14-.88,0-1.56-.27-2.05-.81-.49-.54-.74-1.3-.74-2.29s.24-1.76.71-2.34c.47-.58,1.09-.86,1.86-.86.71,0,1.26.24,1.65.71.39.47.58,1.14.58,2.01v.55ZM38.35,279.93c0-.53-.12-.94-.35-1.23-.23-.29-.58-.44-1.06-.44s-.86.16-1.14.48c-.28.32-.44.71-.48,1.19h3.03Z" style="stroke-width:0px;"/><path d="M43.3,283.54c-.17.05-.35.09-.55.12-.2.03-.37.05-.53.05-.54,0-.95-.16-1.23-.49-.28-.33-.42-.86-.42-1.58v-3.19h-.6v-.85h.6v-1.72h.89v1.72h1.83v.85h-1.83v2.73c0,.32,0,.56.02.74.01.18.06.34.13.5.07.14.17.25.29.31.12.07.31.1.56.1.14,0,.3-.02.45-.07.16-.05.27-.09.34-.12h.05v.91Z" style="stroke-width:0px;"/><path d="M9.01,308.12h-2.78v-.82h.92v-6.37h-.92v-.82h2.78v.82h-.92v6.37h.92v.82Z" style="stroke-width:0px;"/><path d="M14.95,308.12h-.89v-3.42c0-.28-.01-.53-.04-.78-.03-.24-.08-.43-.16-.57-.08-.15-.19-.26-.34-.34-.15-.07-.34-.11-.58-.11s-.5.07-.76.2c-.26.14-.52.31-.76.52v4.48h-.89v-6h.89v.67c.28-.26.56-.46.86-.61.3-.15.6-.22.91-.22.57,0,1,.2,1.3.58.3.39.45.95.45,1.69v3.89Z" style="stroke-width:0px;"/><path d="M11.78,337.86c.29.36.51.8.66,1.32.15.52.23,1.11.23,1.77s-.08,1.25-.23,1.77c-.16.52-.37.96-.65,1.3-.29.36-.63.63-1.03.82s-.85.27-1.35.27-.94-.09-1.35-.28c-.4-.19-.75-.46-1.03-.81-.28-.35-.5-.79-.65-1.31s-.23-1.1-.23-1.77.08-1.24.23-1.75.37-.96.66-1.33c.28-.35.62-.62,1.03-.81.41-.19.86-.28,1.34-.28s.96.09,1.36.28c.4.19.74.46,1.02.8ZM11.69,340.94c0-1.04-.21-1.84-.61-2.4-.41-.56-.97-.85-1.68-.85s-1.28.28-1.69.85c-.41.56-.61,1.36-.61,2.4s.21,1.85.62,2.41c.42.56.97.83,1.67.83s1.26-.28,1.67-.83c.41-.56.62-1.36.62-2.41Z" style="stroke-width:0px;"/><path d="M18.45,344.94h-.89v-.67c-.3.27-.59.47-.86.62-.27.14-.58.21-.91.21-.55,0-.99-.19-1.29-.58-.31-.38-.46-.95-.46-1.69v-3.89h.89v3.42c0,.3.01.57.04.78.02.22.08.4.16.56.08.16.2.27.33.34.14.07.33.11.59.11.23,0,.48-.07.75-.2.27-.14.53-.31.76-.52v-4.48h.89v6Z" style="stroke-width:0px;"/><path d="M22.95,344.88c-.17.05-.35.09-.55.12s-.37.05-.53.05c-.54,0-.95-.17-1.23-.49-.28-.33-.42-.86-.42-1.58v-3.19h-.6v-.85h.6v-1.72h.89v1.72h1.83v.85h-1.83v2.73c0,.31,0,.56.02.74.01.18.06.34.13.5.07.14.16.25.29.31.12.07.31.1.56.1.15,0,.3-.02.45-.07.16-.05.27-.09.34-.12h.05v.91Z" style="stroke-width:0px;"/><path d="M46.72,232.57c-.17.09-.33.17-.47.24-.14.08-.32.15-.55.24-.19.07-.4.13-.63.17-.23.05-.47.07-.75.07-.51,0-.97-.08-1.39-.24-.42-.16-.78-.42-1.09-.77-.3-.34-.54-.77-.71-1.3s-.25-1.13-.25-1.83c0-.66.08-1.25.25-1.77.16-.52.4-.96.71-1.32.3-.35.66-.61,1.08-.79s.89-.27,1.41-.27c.38,0,.76.05,1.13.16.38.1.79.29,1.25.55v1.26h-.07c-.39-.37-.77-.64-1.15-.81-.38-.17-.79-.25-1.22-.25-.36,0-.68.07-.96.2s-.54.33-.76.61c-.22.27-.39.61-.51,1.02-.12.41-.18.88-.18,1.42s.07,1.05.2,1.45c.13.41.31.73.52.99.22.27.48.46.77.59.29.13.61.19.93.19.45,0,.87-.09,1.27-.26.39-.17.76-.44,1.11-.79h.07v1.25Z" style="stroke-width:0px;"/><path d="M46.72,214c-.17.09-.33.17-.47.24-.14.08-.32.15-.55.24-.19.07-.4.13-.63.17-.23.05-.47.07-.75.07-.51,0-.97-.08-1.39-.25-.42-.16-.78-.42-1.09-.76-.3-.34-.54-.77-.71-1.3-.17-.52-.25-1.13-.25-1.83s.08-1.25.25-1.77c.16-.52.4-.96.71-1.32.3-.35.66-.61,1.08-.79s.89-.27,1.41-.27c.38,0,.76.05,1.13.16.38.1.79.29,1.25.55v1.26h-.07c-.39-.37-.77-.64-1.15-.81-.38-.17-.79-.25-1.22-.25-.36,0-.68.07-.96.2-.29.13-.54.33-.76.61-.22.27-.39.61-.51,1.02s-.18.88-.18,1.42.07,1.04.2,1.45c.13.4.31.73.52.99.22.26.48.46.77.59s.61.19.93.19c.45,0,.87-.09,1.27-.26.39-.18.76-.44,1.11-.79h.07v1.25Z" style="stroke-width:0px;"/><path d="M54.1,209.58h-1.57l-.44,2.02h1.46v.73h-1.62l-.49,2.26h-.61l.49-2.26h-1.28l-.49,2.26h-.61l.49-2.26h-1.41v-.73h1.57l.43-2.02h-1.46v-.72h1.62l.5-2.27h.61l-.5,2.27h1.28l.5-2.27h.61l-.5,2.27h1.41v.72ZM51.93,209.57h-1.29l-.44,2.04h1.29l.44-2.04Z" style="stroke-width:0px;"/><path d="M45.78,114.69h-3.56v2.26h3.06v.95h-3.06v3.85h-.94v-8h4.5v.95Z" style="stroke-width:0px;"/><path d="M52.9,116.73h-1.57l-.43,2.02h1.46v.73h-1.62l-.49,2.26h-.61l.49-2.26h-1.28l-.49,2.26h-.61l.49-2.26h-1.41v-.73h1.57l.44-2.02h-1.46v-.73h1.62l.5-2.27h.61l-.5,2.27h1.28l.5-2.27h.61l-.5,2.27h1.41v.73ZM50.73,116.72h-1.29l-.44,2.04h1.29l.44-2.04Z" style="stroke-width:0px;"/><path d="M47.23,192.02c0,.73-.14,1.39-.42,1.98-.28.59-.65,1.05-1.11,1.38-.32.23-.68.39-1.08.49-.4.1-.92.15-1.56.15h-1.78v-8h1.76c.69,0,1.23.06,1.64.17.4.11.75.27,1.03.46.48.34.85.79,1.12,1.36.27.57.4,1.24.4,2.01ZM46.25,192.01c0-.63-.1-1.15-.29-1.58s-.48-.77-.86-1.02c-.28-.18-.57-.3-.88-.37-.31-.07-.69-.1-1.12-.1h-.88v6.17h.88c.45,0,.84-.04,1.18-.11.34-.08.64-.21.92-.42.35-.25.61-.59.79-1,.18-.42.26-.93.26-1.56Z" style="stroke-width:0px;"/><path d="M45.92,158.88h-4.64v-8h4.64v.95h-3.7v2.19h3.7v.95h-3.7v2.97h3.7v.95Z" style="stroke-width:0px;"/><path d="M45.78,133.26h-3.56v2.26h3.06v.95h-3.06v3.85h-.94v-8h4.5v.95Z" style="stroke-width:0px;"/><path d="M47.15,102.58c-.38.2-.8.38-1.26.52-.46.15-.9.22-1.32.22-.55,0-1.05-.09-1.51-.26s-.85-.43-1.17-.77c-.32-.35-.57-.78-.75-1.3-.18-.52-.26-1.13-.26-1.83,0-1.28.33-2.29.99-3.03.66-.74,1.56-1.11,2.71-1.11.4,0,.81.05,1.23.16.42.11.87.29,1.35.56v1.26h-.08c-.1-.09-.24-.2-.43-.34s-.37-.26-.55-.35c-.22-.11-.46-.2-.74-.28-.28-.07-.59-.11-.94-.11-.79,0-1.41.29-1.87.86-.46.58-.69,1.35-.69,2.33,0,1.03.24,1.84.72,2.41.48.58,1.13.86,1.96.86.3,0,.6-.03.91-.1s.57-.16.79-.26v-1.96h-1.89v-.93h2.81v3.43Z" style="stroke-width:0px;"/><path d="M47.15,84.01c-.38.2-.8.38-1.26.52-.46.15-.9.22-1.32.22-.55,0-1.05-.09-1.51-.26s-.85-.43-1.17-.77c-.32-.35-.57-.78-.75-1.3-.18-.52-.26-1.13-.26-1.83,0-1.28.33-2.29.99-3.03.66-.74,1.56-1.11,2.71-1.11.4,0,.81.05,1.23.16.42.11.87.29,1.35.56v1.26h-.08c-.1-.09-.24-.2-.43-.34s-.37-.26-.55-.35c-.22-.11-.46-.2-.74-.28-.28-.07-.59-.11-.94-.11-.79,0-1.41.29-1.87.86-.46.58-.69,1.35-.69,2.33,0,1.03.24,1.84.72,2.41.48.58,1.13.86,1.96.86.3,0,.6-.03.91-.1s.57-.16.79-.26v-1.96h-1.89v-.93h2.81v3.43Z" style="stroke-width:0px;"/><path d="M54.84,79.59h-1.57l-.44,2.02h1.46v.73h-1.62l-.49,2.26h-.61l.49-2.26h-1.28l-.49,2.26h-.61l.49-2.26h-1.41v-.73h1.57l.43-2.02h-1.46v-.73h1.62l.5-2.27h.61l-.5,2.27h1.28l.5-2.27h.61l-.5,2.27h1.41v.73ZM52.67,79.58h-1.29l-.44,2.04h1.29l.44-2.04Z" style="stroke-width:0px;"/><path d="M46.83,47.46h-1l-.69-2.23h-3.04l-.69,2.23h-.95l2.56-8h1.25l2.56,8ZM44.86,44.32l-1.23-3.93-1.24,3.93h2.47Z" style="stroke-width:0px;"/><path d="M53.95,42.46h-1.57l-.44,2.02h1.46v.73h-1.62l-.49,2.26h-.61l.49-2.26h-1.28l-.49,2.26h-.61l.49-2.26h-1.41v-.73h1.57l.43-2.02h-1.46v-.72h1.62l.5-2.27h.61l-.5,2.27h1.28l.5-2.27h.61l-.5,2.27h1.41v.72ZM51.79,42.45h-1.29l-.44,2.04h1.29l.44-2.04Z" style="stroke-width:0px;"/><path d="M47.23,173.46c0,.73-.14,1.39-.42,1.98-.28.59-.65,1.05-1.11,1.38-.32.23-.68.39-1.08.49s-.92.15-1.56.15h-1.78v-8h1.76c.69,0,1.23.06,1.64.17.4.11.75.27,1.03.46.48.34.85.79,1.12,1.36.27.57.4,1.24.4,2.01ZM46.25,173.44c0-.63-.1-1.15-.29-1.58s-.48-.77-.86-1.02c-.28-.18-.57-.3-.88-.37-.31-.07-.69-.1-1.12-.1h-.88v6.17h.88c.45,0,.84-.04,1.18-.11.34-.08.64-.21.92-.42.35-.25.61-.59.79-1,.18-.42.26-.93.26-1.56Z" style="stroke-width:0px;"/><path d="M54.8,172.44h-1.57l-.43,2.02h1.46v.73h-1.62l-.49,2.26h-.61l.49-2.26h-1.28l-.49,2.26h-.61l.49-2.26h-1.41v-.73h1.57l.44-2.02h-1.46v-.73h1.62l.5-2.27h.61l-.5,2.27h1.28l.5-2.27h.61l-.5,2.27h1.41v.73ZM52.63,172.43h-1.29l-.44,2.04h1.29l.44-2.04Z" style="stroke-width:0px;"/><line x1="24.45" y1="44.38" x2="37.95" y2="44.38" style="fill:#9d9d9e; stroke:#000; stroke-miterlimit:10; stroke-width:.71px;"/><line x1="24.45" y1="81.52" x2="37.95" y2="81.52" style="fill:#9d9d9e; stroke:#000; stroke-miterlimit:10; stroke-width:.71px;"/><line x1="24.45" y1="174.36" x2="37.95" y2="174.36" style="fill:#9d9d9e; stroke:#000; stroke-miterlimit:10; stroke-width:.71px;"/><line x1="24.45" y1="118.11" x2="37.95" y2="118.11" style="fill:#9d9d9e; stroke:#000; stroke-miterlimit:10; stroke-width:.71px;"/><line x1="24.45" y1="211.5" x2="37.95" y2="211.5" style="fill:#9d9d9e; stroke:#000; stroke-miterlimit:10; stroke-width:.71px;"/></g><g id="components"><circle id="Out_1" cx="39.83" cy="340.66" r="11.34" style="fill:blue; stroke-width:0px;"/><circle id="In_2" cx="39.15" cy="304.27" r="11.34" style="fill:lime; stroke-width:0px;"/><circle id="Csharp_SmallButton" cx="24.83" cy="230.07" r="8.5" style="fill:#ffc000; stroke-width:0px;"/><circle id="Csharp_SmallButton-2" cx="11.76" cy="211.5" r="8.5" style="fill:#ffc000; stroke-width:0px;"/><circle id="Csharp_SmallButton-3" cx="11.76" cy="118.66" r="8.5" style="fill:#ffc000; stroke-width:0px;"/><circle id="Csharp_SmallButton-4" cx="24.83" cy="192.93" r="8.5" style="fill:#ffc000; stroke-width:0px;"/><circle id="Csharp_SmallButton-5" cx="24.83" cy="155.8" r="8.5" style="fill:#ffc000; stroke-width:0px;"/><circle id="Csharp_SmallButton-6" cx="24.83" cy="137.23" r="8.5" style="fill:#ffc000; stroke-width:0px;"/><circle id="Csharp_SmallButton-7" cx="24.83" cy="100.09" r="8.5" style="fill:#ffc000; stroke-width:0px;"/><circle id="Csharp_SmallButton-8" cx="11.76" cy="81.52" r="8.5" style="fill:#ffc000; stroke-width:0px;"/><circle id="Csharp_SmallButton-9" cx="11.76" cy="44.38" r="8.5" style="fill:#ffc000; stroke-width:0px;"/><circle id="Csharp_SmallButton-10" cx="24.83" cy="62.95" r="8.5" style="fill:#ffc000; stroke-width:0px;"/><circle id="Csharp_SmallButton-11" cx="24.83" cy="25.81" r="8.5" style="fill:#ffc000; stroke-width:0px;"/><circle id="Csharp_SmallButton-12" cx="11.76" cy="174.36" r="8.5" style="fill:#ffc000; stroke-width:0px;"/><g id="slug"><path d="M25.49,363.37c-.27-.07-.54-.15-.78-.23-.04-.01-.08-.03-.12-.03-.48-.02-.89-.37-.89-1.03s.4-1.07.94-1.07.91.43.91,1.03c0,.52-.24.85-.58.97h0c.2.06.42.11.59.14l-.08.22ZM25.27,362.05c0-.41-.21-.82-.64-.82s-.66.41-.66.85c0,.43.23.82.64.82s.65-.38.65-.84Z" style="stroke-width:0px;"/><path d="M27.1,362.68c0,.15,0,.28.01.4h-.23l-.02-.24h0c-.07.12-.22.27-.48.27-.23,0-.5-.13-.5-.64v-.85h.26v.81c0,.28.08.46.33.46.18,0,.3-.12.35-.24.01-.04.02-.09.02-.14v-.89h.26v1.06Z" style="stroke-width:0px;"/><path d="M28.34,363.07l-.02-.18h0c-.08.11-.24.22-.45.22-.29,0-.44-.21-.44-.42,0-.35.31-.54.87-.54v-.03c0-.12-.03-.34-.33-.34-.14,0-.28.04-.38.11l-.06-.17c.12-.08.29-.13.48-.13.44,0,.55.3.55.6v.54c0,.13,0,.25.02.35h-.24ZM28.3,362.33c-.29,0-.62.05-.62.33,0,.17.11.25.25.25.19,0,.31-.12.35-.24,0-.03.02-.06.02-.08v-.25Z" style="stroke-width:0px;"/><path d="M28.98,362.01c0-.15,0-.27-.01-.39h.23l.02.24h0c.07-.14.24-.27.48-.27.2,0,.51.12.51.62v.87h-.26v-.84c0-.23-.09-.43-.34-.43-.17,0-.31.12-.35.27-.01.03-.02.08-.02.12v.88h-.26v-1.06Z" style="stroke-width:0px;"/><path d="M30.96,361.2v.42h.38v.2h-.38v.79c0,.18.05.28.2.28.07,0,.12,0,.15-.02v.2s-.12.04-.22.04c-.12,0-.22-.04-.29-.11-.08-.08-.1-.21-.1-.38v-.79h-.23v-.2h.23v-.35l.26-.07Z" style="stroke-width:0px;"/><path d="M31.92,361.21c0,.09-.06.16-.17.16-.09,0-.16-.07-.16-.16s.07-.17.17-.17.16.07.16.17ZM31.63,363.07v-1.46h.26v1.46h-.26Z" style="stroke-width:0px;"/><path d="M32.17,362.92l.66-.86c.06-.08.12-.15.19-.22h0s-.79,0-.79,0v-.21h1.11v.17s-.65.84-.65.84c-.06.08-.12.15-.19.23h0s.85,0,.85,0v.21h-1.18v-.15Z" style="stroke-width:0px;"/><path d="M33.74,362.39c0,.36.23.5.5.5.19,0,.3-.03.4-.08l.04.19c-.09.04-.25.09-.48.09-.45,0-.72-.29-.72-.73s.26-.78.68-.78c.47,0,.6.42.6.69,0,.05,0,.1,0,.12h-1.02ZM34.52,362.21c0-.17-.07-.43-.37-.43-.27,0-.38.25-.41.43h.77Z" style="stroke-width:0px;"/><path d="M35.1,362.07c0-.17,0-.32-.01-.45h.23v.29h.02c.07-.2.23-.32.4-.32.03,0,.05,0,.08,0v.25s-.05,0-.09,0c-.19,0-.32.14-.35.34,0,.04-.01.08-.01.12v.78h-.26v-1Z" style="stroke-width:0px;"/></g><g id="modulename"><path d="M38.41,363.37c-.27-.07-.54-.15-.78-.23-.04-.02-.08-.03-.12-.03-.48-.02-.89-.37-.89-1.03s.4-1.07.94-1.07.91.43.91,1.03c0,.52-.24.85-.58.97h0c.2.06.42.11.59.14l-.08.22ZM38.2,362.05c0-.41-.21-.82-.64-.82s-.66.41-.66.85c0,.43.23.82.64.82s.65-.38.65-.84Z" style="stroke-width:0px;"/><path d="M40.02,362.68c0,.15,0,.28.01.4h-.23l-.02-.24h0c-.07.12-.22.27-.48.27-.23,0-.5-.13-.5-.64v-.85h.26v.81c0,.28.08.46.33.46.18,0,.3-.12.35-.24.01-.04.02-.09.02-.14v-.89h.26v1.06Z" style="stroke-width:0px;"/><path d="M41.27,363.07l-.02-.18h0c-.08.11-.24.22-.45.22-.29,0-.44-.21-.44-.42,0-.35.31-.54.87-.54v-.03c0-.12-.03-.34-.33-.34-.14,0-.28.04-.38.11l-.06-.17c.12-.08.29-.13.48-.13.44,0,.55.3.55.6v.54c0,.13,0,.25.02.35h-.24ZM41.23,362.33c-.29,0-.62.04-.62.33,0,.17.11.25.25.25.19,0,.31-.12.35-.24,0-.03.02-.06.02-.08v-.25Z" style="stroke-width:0px;"/><path d="M41.91,362.01c0-.15,0-.27-.01-.39h.23l.02.24h0c.07-.14.24-.27.48-.27.2,0,.51.12.51.62v.87h-.26v-.84c0-.23-.09-.43-.34-.43-.17,0-.31.12-.35.27-.01.03-.02.08-.02.12v.88h-.26v-1.06Z" style="stroke-width:0px;"/><path d="M43.88,361.2v.42h.38v.2h-.38v.79c0,.18.05.28.2.28.07,0,.12,0,.15-.02v.2s-.12.04-.22.04c-.12,0-.22-.04-.29-.11-.08-.08-.1-.21-.1-.38v-.79h-.23v-.2h.23v-.35l.26-.07Z" style="stroke-width:0px;"/><path d="M44.85,361.21c0,.09-.06.16-.17.16-.09,0-.16-.07-.16-.16s.07-.17.17-.17.16.07.16.17ZM44.55,363.07v-1.46h.26v1.46h-.26Z" style="stroke-width:0px;"/><path d="M45.09,362.92l.66-.86c.06-.08.12-.15.19-.23h0s-.79,0-.79,0v-.21h1.11v.17s-.65.84-.65.84c-.06.08-.12.15-.19.23h0s.85,0,.85,0v.21h-1.18v-.15Z" style="stroke-width:0px;"/><path d="M46.66,362.39c0,.36.23.5.5.5.19,0,.3-.03.4-.07l.04.19c-.09.04-.25.09-.48.09-.45,0-.72-.29-.72-.73s.26-.79.68-.79c.47,0,.6.42.6.69,0,.05,0,.1,0,.12h-1.02ZM47.44,362.2c0-.17-.07-.43-.37-.43-.27,0-.38.25-.41.43h.77Z" style="stroke-width:0px;"/><path d="M48.02,362.07c0-.17,0-.32-.01-.45h.23v.29h.02c.07-.2.23-.32.4-.32.03,0,.05,0,.08,0v.25s-.05,0-.09,0c-.19,0-.32.14-.35.34,0,.04-.01.08-.01.12v.78h-.26v-1Z" style="stroke-width:0px;"/></g><circle id="Offset_Trimpot" cx="28.92" cy="258.63" r="9.12" style="fill:#ff0040; stroke-width:0px;"/></g></svg>