<?xml version="1.0" encoding="utf-8"?>
<!-- Generator: Adobe Illustrator 28.1.0, SVG Export Plug-In . SVG Version: 6.00 Build 0)  -->
<svg version="1.1" id="Layer_1" xmlns="http://www.w3.org/2000/svg" xmlns:xlink="http://www.w3.org/1999/xlink" x="0px" y="0px"
	 viewBox="0 0 100.5 364.2" style="enable-background:new 0 0 100.5 364.2;" xml:space="preserve">
<style type="text/css">
	.st0{fill:url(#rect9_00000131359032301595061120000000016985004438804355_);}
	.st1{fill:#231F20;}
	.st2{font-family:'Verdana-Bold';}
	.st3{font-size:14px;}
	.st4{clip-path:url(#SVGID_00000088125514497615715630000008049384745758615680_);}
	.st5{clip-path:url(#SVGID_00000101808936609044428970000007536851716984151986_);}
	.st6{clip-path:url(#SVGID_00000072245605247931102640000002075634227234851744_);}
	.st7{clip-path:url(#SVGID_00000097473826518122454930000012148437894382051722_);}
	.st8{clip-path:url(#SVGID_00000098905101227363338160000008497826796846428817_);}
	.st9{clip-path:url(#SVGID_00000149372575683511285560000009749069668396356759_);}
	.st10{clip-path:url(#SVGID_00000030452871500285846450000014566986912081161088_);}
	.st11{clip-path:url(#SVGID_00000177442653062777649740000014388666081236666766_);}
	.st12{clip-path:url(#SVGID_00000132796722445133306870000014030488719889266325_);}
	.st13{clip-path:url(#SVGID_00000052061926066159004150000011745238656959764919_);}
	.st14{clip-path:url(#SVGID_00000052824325813983477080000007604233788745836680_);}
	.st15{clip-path:url(#SVGID_00000173121347860362794770000007358571167897093024_);}
	.st16{clip-path:url(#SVGID_00000182527191850668330870000014979896878187265716_);}
	.st17{clip-path:url(#SVGID_00000152253757777829280870000010668974444667656334_);}
	.st18{clip-path:url(#SVGID_00000087372760365165375700000002297143247132666759_);}
	.st19{clip-path:url(#SVGID_00000151532515575122895360000009402839015494675369_);}
	.st20{clip-path:url(#SVGID_00000016053702153911417360000007457190670229216692_);}
	.st21{clip-path:url(#SVGID_00000027575359190214647190000008939440270826408364_);}
	.st22{clip-path:url(#SVGID_00000041270222667245525980000003077287043867403680_);}
	.st23{clip-path:url(#SVGID_00000023978429043586417010000000770050873598785408_);}
	.st24{clip-path:url(#SVGID_00000114767571301435510740000010547045648552639403_);}
	.st25{clip-path:url(#SVGID_00000031911348082028972830000003236515380540876220_);}
	.st26{clip-path:url(#SVGID_00000162311884954499554570000011567903883551818394_);}
	.st27{clip-path:url(#SVGID_00000065049178330614197140000009604501957088519343_);}
	.st28{clip-path:url(#SVGID_00000170242140850944453370000009998725682881808568_);}
	.st29{clip-path:url(#SVGID_00000122712104240457575710000004150393814650692238_);}
	.st30{clip-path:url(#SVGID_00000141414026201417023190000010183814198028691874_);}
	.st31{clip-path:url(#SVGID_00000094595157399177887020000005157400003943201943_);}
	.st32{clip-path:url(#SVGID_00000070094078202040681530000006665214325605584013_);}
	.st33{clip-path:url(#SVGID_00000164482002449853655520000008078230840610291864_);}
	.st34{clip-path:url(#SVGID_00000024709176162504648870000013920903328024935311_);}
	.st35{clip-path:url(#SVGID_00000013896067533833567450000015803015403966886804_);}
	.st36{clip-path:url(#SVGID_00000073723790706448416550000003282877084759918484_);}
	.st37{font-size:12px;}
	.st38{font-family:'Verdana';}
	.st39{fill:#FFFFFF;}
</style>
<linearGradient id="rect9_00000037664302157173891460000014033410319573253015_" gradientUnits="userSpaceOnUse" x1="50.3" y1="410.0377" x2="50.3" y2="774.2377" gradientTransform="matrix(1 0 0 1 0 -410.0377)">
	<stop  offset="0" style="stop-color:#EBEBEB"/>
	<stop  offset="1" style="stop-color:#E1E1E1"/>
</linearGradient>
<rect id="rect9" style="fill:url(#rect9_00000037664302157173891460000014033410319573253015_);" width="100.6" height="364.2"/>
<path class="st1" d="M83.4,351.7H48.3c-7.2,0-13.1-5.9-13.1-13.1v-22.7c0-7.2,5.9-13.1,13.1-13.1h35.1c7.2,0,13.1,5.9,13.1,13.1
	v22.7C96.5,345.8,90.6,351.7,83.4,351.7z"/>
<g>
	<text transform="matrix(1 0 0 1 35.5177 28.8982)" class="st2 st3">VCF</text>
</g>
<g id="pips_-_fewest_00000167356821747877680020000001811524091594256813_">
	<g>
		<g>
			<g>
				<defs>
					<rect id="SVGID_1_" x="5.9" y="215" width="27.8" height="25.6"/>
				</defs>
				<clipPath id="SVGID_00000183243591635629035590000011859168734392365759_">
					<use xlink:href="#SVGID_1_"  style="overflow:visible;"/>
				</clipPath>
				<g style="clip-path:url(#SVGID_00000183243591635629035590000011859168734392365759_);">
					<g>
						<g>
							<defs>
								<rect id="SVGID_00000102502353331185919110000002084139597369705631_" x="5.9" y="215" width="27.8" height="25.6"/>
							</defs>
							<clipPath id="SVGID_00000078007804890501806750000013971403741882649480_">
								<use xlink:href="#SVGID_00000102502353331185919110000002084139597369705631_"  style="overflow:visible;"/>
							</clipPath>
							<path style="clip-path:url(#SVGID_00000078007804890501806750000013971403741882649480_);" d="M25.5,217.8l0.7-1.2
								c-1.7-0.9-3.7-1.5-5.8-1.5v1.4C22.3,216.5,24,217,25.5,217.8"/>
						</g>
					</g>
					<g>
						<g>
							<defs>
								<rect id="SVGID_00000098195275370429743360000016992484418402440108_" x="5.9" y="215" width="27.8" height="25.6"/>
							</defs>
							<clipPath id="SVGID_00000115489291980696045390000016685713837306578620_">
								<use xlink:href="#SVGID_00000098195275370429743360000016992484418402440108_"  style="overflow:visible;"/>
							</clipPath>
							<path style="clip-path:url(#SVGID_00000115489291980696045390000016685713837306578620_);" d="M30.3,222.1l1.2-0.7
								c-1.1-1.7-2.5-3.1-4.2-4.2l-0.7,1.2C28.1,219.3,29.4,220.6,30.3,222.1"/>
						</g>
					</g>
					<g>
						<g>
							<defs>
								<rect id="SVGID_00000099639241424958090300000012021548802080372356_" x="5.9" y="215" width="27.8" height="25.6"/>
							</defs>
							<clipPath id="SVGID_00000028301218915448734640000014290313749816833177_">
								<use xlink:href="#SVGID_00000099639241424958090300000012021548802080372356_"  style="overflow:visible;"/>
							</clipPath>
							<path style="clip-path:url(#SVGID_00000028301218915448734640000014290313749816833177_);" d="M13,218.4l-0.7-1.2
								c-1.7,1.1-3.1,2.5-4.2,4.2l1.2,0.7C10.3,220.6,11.6,219.3,13,218.4"/>
						</g>
					</g>
					<g>
						<g>
							<defs>
								<rect id="SVGID_00000005947532186450585790000015624299005117997189_" x="5.9" y="215" width="27.8" height="25.6"/>
							</defs>
							<clipPath id="SVGID_00000056424526093013426370000000077272602462262710_">
								<use xlink:href="#SVGID_00000005947532186450585790000015624299005117997189_"  style="overflow:visible;"/>
							</clipPath>
							<path style="clip-path:url(#SVGID_00000056424526093013426370000000077272602462262710_);" d="M32.3,228.2h1.4
								c-0.1-2.1-0.6-4-1.5-5.8l-1.2,0.7C31.7,224.7,32.2,226.4,32.3,228.2"/>
						</g>
					</g>
					<g>
						<g>
							<defs>
								<rect id="SVGID_00000013151801365333541560000004050996358233653414_" x="5.9" y="215" width="27.8" height="25.6"/>
							</defs>
							<clipPath id="SVGID_00000021807852701884768190000005178670046320588193_">
								<use xlink:href="#SVGID_00000013151801365333541560000004050996358233653414_"  style="overflow:visible;"/>
							</clipPath>
							<path style="clip-path:url(#SVGID_00000021807852701884768190000005178670046320588193_);" d="M19.2,216.4V215
								c-2.1,0.1-4,0.6-5.8,1.5l0.7,1.2C15.7,217,17.4,216.5,19.2,216.4"/>
						</g>
					</g>
					<g>
						<g>
							<defs>
								<rect id="SVGID_00000011728976630324827370000003067636150552834744_" x="5.9" y="215" width="27.8" height="25.6"/>
							</defs>
							<clipPath id="SVGID_00000001643812725047243420000002984039632152245421_">
								<use xlink:href="#SVGID_00000011728976630324827370000003067636150552834744_"  style="overflow:visible;"/>
							</clipPath>
							<path style="clip-path:url(#SVGID_00000001643812725047243420000002984039632152245421_);" d="M9.3,235.7l-1.2,0.7
								c1.1,1.7,2.5,3.1,4.2,4.2l0.7-1.2C11.6,238.4,10.3,237.1,9.3,235.7"/>
						</g>
					</g>
					<g>
						<g>
							<defs>
								<rect id="SVGID_00000136381664842748303650000016108765747046082236_" x="5.9" y="215" width="27.8" height="25.6"/>
							</defs>
							<clipPath id="SVGID_00000029036762464189155680000015137426028883974815_">
								<use xlink:href="#SVGID_00000136381664842748303650000016108765747046082236_"  style="overflow:visible;"/>
							</clipPath>
							<path style="clip-path:url(#SVGID_00000029036762464189155680000015137426028883974815_);" d="M26.6,239.4l0.7,1.2
								c1.7-1.1,3.1-2.5,4.2-4.2l-1.2-0.7C29.3,237.1,28.1,238.4,26.6,239.4"/>
						</g>
					</g>
					<g>
						<g>
							<defs>
								<rect id="SVGID_00000149369599529403971340000009225863455662720189_" x="5.9" y="215" width="27.8" height="25.6"/>
							</defs>
							<clipPath id="SVGID_00000034085609497332553020000017969285987944271758_">
								<use xlink:href="#SVGID_00000149369599529403971340000009225863455662720189_"  style="overflow:visible;"/>
							</clipPath>
							<path style="clip-path:url(#SVGID_00000034085609497332553020000017969285987944271758_);" d="M32.3,229.5
								c-0.1,1.8-0.6,3.5-1.4,5.1l1.2,0.7c0.9-1.7,1.5-3.7,1.5-5.8H32.3z"/>
						</g>
					</g>
					<g>
						<g>
							<defs>
								<rect id="SVGID_00000176032417546907169560000000160635795334441124_" x="5.9" y="215" width="27.8" height="25.6"/>
							</defs>
							<clipPath id="SVGID_00000127759095934520284670000012699736922813035422_">
								<use xlink:href="#SVGID_00000176032417546907169560000000160635795334441124_"  style="overflow:visible;"/>
							</clipPath>
							<path style="clip-path:url(#SVGID_00000127759095934520284670000012699736922813035422_);" d="M7.3,229.5H5.9
								c0.1,2.1,0.6,4,1.5,5.8l1.2-0.7C7.9,233,7.4,231.3,7.3,229.5"/>
						</g>
					</g>
					<g>
						<g>
							<defs>
								<rect id="SVGID_00000021086169617764812010000006244717156794675094_" x="5.9" y="215" width="27.8" height="25.6"/>
							</defs>
							<clipPath id="SVGID_00000154393167285219467440000000568072739603344805_">
								<use xlink:href="#SVGID_00000021086169617764812010000006244717156794675094_"  style="overflow:visible;"/>
							</clipPath>
							<path style="clip-path:url(#SVGID_00000154393167285219467440000000568072739603344805_);" d="M8.7,223.2l-1.2-0.7
								c-0.9,1.7-1.5,3.7-1.5,5.8h1.4C7.4,226.4,7.9,224.7,8.7,223.2"/>
						</g>
					</g>
				</g>
			</g>
		</g>
	</g>
</g>
<g id="pips_-_fewest_00000083071148514392843770000005633327471756959131_">
	<g>
		<g>
			<g>
				<defs>
					<rect id="SVGID_00000112610983372397851650000003060297662441050545_" x="36.5" y="215" width="27.8" height="25.6"/>
				</defs>
				<clipPath id="SVGID_00000124156487415050397980000009236900134130219690_">
					<use xlink:href="#SVGID_00000112610983372397851650000003060297662441050545_"  style="overflow:visible;"/>
				</clipPath>
				<g style="clip-path:url(#SVGID_00000124156487415050397980000009236900134130219690_);">
					<g>
						<g>
							<defs>
								<rect id="SVGID_00000093159694089082796860000016888471293378939277_" x="36.5" y="215" width="27.8" height="25.6"/>
							</defs>
							<clipPath id="SVGID_00000004532763908853330460000010978100237228551583_">
								<use xlink:href="#SVGID_00000093159694089082796860000016888471293378939277_"  style="overflow:visible;"/>
							</clipPath>
							<path style="clip-path:url(#SVGID_00000004532763908853330460000010978100237228551583_);" d="M56.1,217.8l0.7-1.2
								c-1.7-0.9-3.7-1.5-5.8-1.5v1.4C52.9,216.5,54.6,217,56.1,217.8"/>
						</g>
					</g>
					<g>
						<g>
							<defs>
								<rect id="SVGID_00000019670556928261133960000004556500799598744730_" x="36.5" y="215" width="27.8" height="25.6"/>
							</defs>
							<clipPath id="SVGID_00000023992587140333471900000010680290194816482947_">
								<use xlink:href="#SVGID_00000019670556928261133960000004556500799598744730_"  style="overflow:visible;"/>
							</clipPath>
							<path style="clip-path:url(#SVGID_00000023992587140333471900000010680290194816482947_);" d="M60.9,222.1l1.2-0.7
								c-1.1-1.7-2.5-3.1-4.2-4.2l-0.7,1.2C58.7,219.3,60,220.6,60.9,222.1"/>
						</g>
					</g>
					<g>
						<g>
							<defs>
								<rect id="SVGID_00000079479570350956148520000009986567319621923983_" x="36.5" y="215" width="27.8" height="25.6"/>
							</defs>
							<clipPath id="SVGID_00000129194273839046685460000015977728127624003759_">
								<use xlink:href="#SVGID_00000079479570350956148520000009986567319621923983_"  style="overflow:visible;"/>
							</clipPath>
							<path style="clip-path:url(#SVGID_00000129194273839046685460000015977728127624003759_);" d="M43.6,218.4l-0.7-1.2
								c-1.7,1.1-3.1,2.5-4.2,4.2l1.2,0.7C40.9,220.6,42.2,219.3,43.6,218.4"/>
						</g>
					</g>
					<g>
						<g>
							<defs>
								<rect id="SVGID_00000008139870048210578010000014080264190711382434_" x="36.5" y="215" width="27.8" height="25.6"/>
							</defs>
							<clipPath id="SVGID_00000121270454541132528390000000994778887199931579_">
								<use xlink:href="#SVGID_00000008139870048210578010000014080264190711382434_"  style="overflow:visible;"/>
							</clipPath>
							<path style="clip-path:url(#SVGID_00000121270454541132528390000000994778887199931579_);" d="M62.9,228.2h1.4
								c-0.1-2.1-0.6-4-1.5-5.8l-1.2,0.7C62.3,224.7,62.8,226.4,62.9,228.2"/>
						</g>
					</g>
					<g>
						<g>
							<defs>
								<rect id="SVGID_00000052809340632318357290000007746271380074144932_" x="36.5" y="215" width="27.8" height="25.6"/>
							</defs>
							<clipPath id="SVGID_00000155133474177033834980000001333255320954231201_">
								<use xlink:href="#SVGID_00000052809340632318357290000007746271380074144932_"  style="overflow:visible;"/>
							</clipPath>
							<path style="clip-path:url(#SVGID_00000155133474177033834980000001333255320954231201_);" d="M49.8,216.4V215
								c-2.1,0.1-4,0.6-5.8,1.5l0.7,1.2C46.3,217,48,216.5,49.8,216.4"/>
						</g>
					</g>
					<g>
						<g>
							<defs>
								<rect id="SVGID_00000075851599911984381610000003966214606519046288_" x="36.5" y="215" width="27.8" height="25.6"/>
							</defs>
							<clipPath id="SVGID_00000053532879230661800640000007377181767710815623_">
								<use xlink:href="#SVGID_00000075851599911984381610000003966214606519046288_"  style="overflow:visible;"/>
							</clipPath>
							<path style="clip-path:url(#SVGID_00000053532879230661800640000007377181767710815623_);" d="M39.9,235.7l-1.2,0.7
								c1.1,1.7,2.5,3.1,4.2,4.2l0.7-1.2C42.2,238.4,40.9,237.1,39.9,235.7"/>
						</g>
					</g>
					<g>
						<g>
							<defs>
								<rect id="SVGID_00000004508317901055672780000016728400509417083068_" x="36.5" y="215" width="27.8" height="25.6"/>
							</defs>
							<clipPath id="SVGID_00000036222456325920471830000010928221742717547671_">
								<use xlink:href="#SVGID_00000004508317901055672780000016728400509417083068_"  style="overflow:visible;"/>
							</clipPath>
							<path style="clip-path:url(#SVGID_00000036222456325920471830000010928221742717547671_);" d="M57.2,239.4l0.7,1.2
								c1.7-1.1,3.1-2.5,4.2-4.2l-1.2-0.7C59.9,237.1,58.7,238.4,57.2,239.4"/>
						</g>
					</g>
					<g>
						<g>
							<defs>
								<rect id="SVGID_00000046301127986189356280000009059395634494068141_" x="36.5" y="215" width="27.8" height="25.6"/>
							</defs>
							<clipPath id="SVGID_00000139264031875269344510000006242727404500818098_">
								<use xlink:href="#SVGID_00000046301127986189356280000009059395634494068141_"  style="overflow:visible;"/>
							</clipPath>
							<path style="clip-path:url(#SVGID_00000139264031875269344510000006242727404500818098_);" d="M62.9,229.5
								c-0.1,1.8-0.6,3.5-1.4,5.1l1.2,0.7c0.9-1.7,1.5-3.7,1.5-5.8H62.9z"/>
						</g>
					</g>
					<g>
						<g>
							<defs>
								<rect id="SVGID_00000175308597628139351440000010848405117865395614_" x="36.5" y="215" width="27.8" height="25.6"/>
							</defs>
							<clipPath id="SVGID_00000024713103964046551850000001597100624043032994_">
								<use xlink:href="#SVGID_00000175308597628139351440000010848405117865395614_"  style="overflow:visible;"/>
							</clipPath>
							<path style="clip-path:url(#SVGID_00000024713103964046551850000001597100624043032994_);" d="M37.9,229.5h-1.4
								c0.1,2.1,0.6,4,1.5,5.8l1.2-0.7C38.5,233,38,231.3,37.9,229.5"/>
						</g>
					</g>
					<g>
						<g>
							<defs>
								<rect id="SVGID_00000030485848687048206130000012379359182731209358_" x="36.5" y="215" width="27.8" height="25.6"/>
							</defs>
							<clipPath id="SVGID_00000107561136441509896680000000972559042431883699_">
								<use xlink:href="#SVGID_00000030485848687048206130000012379359182731209358_"  style="overflow:visible;"/>
							</clipPath>
							<path style="clip-path:url(#SVGID_00000107561136441509896680000000972559042431883699_);" d="M39.3,223.2l-1.2-0.7
								c-0.9,1.7-1.5,3.7-1.5,5.8H38C38,226.4,38.5,224.7,39.3,223.2"/>
						</g>
					</g>
				</g>
			</g>
		</g>
	</g>
</g>
<g id="pips_-_fewest_00000028327426251515959130000009944612699668579725_">
	<g>
		<g>
			<g>
				<defs>
					<rect id="SVGID_00000012442073468906292840000001041647720645684635_" x="67.2" y="215" width="27.8" height="25.6"/>
				</defs>
				<clipPath id="SVGID_00000092456509635999935980000013732973185011565754_">
					<use xlink:href="#SVGID_00000012442073468906292840000001041647720645684635_"  style="overflow:visible;"/>
				</clipPath>
				<g style="clip-path:url(#SVGID_00000092456509635999935980000013732973185011565754_);">
					<g>
						<g>
							<defs>
								<rect id="SVGID_00000142172750428135048190000001954872580747447171_" x="67.2" y="215" width="27.8" height="25.6"/>
							</defs>
							<clipPath id="SVGID_00000079457761400717909960000012029790285783207588_">
								<use xlink:href="#SVGID_00000142172750428135048190000001954872580747447171_"  style="overflow:visible;"/>
							</clipPath>
							<path style="clip-path:url(#SVGID_00000079457761400717909960000012029790285783207588_);" d="M86.8,217.8l0.7-1.2
								c-1.7-0.9-3.7-1.5-5.8-1.5v1.4C83.6,216.5,85.3,217,86.8,217.8"/>
						</g>
					</g>
					<g>
						<g>
							<defs>
								<rect id="SVGID_00000140012990353001295650000015475076464635484827_" x="67.2" y="215" width="27.8" height="25.6"/>
							</defs>
							<clipPath id="SVGID_00000052096201521712453340000008015458767300124863_">
								<use xlink:href="#SVGID_00000140012990353001295650000015475076464635484827_"  style="overflow:visible;"/>
							</clipPath>
							<path style="clip-path:url(#SVGID_00000052096201521712453340000008015458767300124863_);" d="M91.6,222.1l1.2-0.7
								c-1.1-1.7-2.5-3.1-4.2-4.2l-0.7,1.2C89.4,219.3,90.7,220.6,91.6,222.1"/>
						</g>
					</g>
					<g>
						<g>
							<defs>
								<rect id="SVGID_00000112622919276466570490000008201151244984564127_" x="67.2" y="215" width="27.8" height="25.6"/>
							</defs>
							<clipPath id="SVGID_00000087401915832989465450000018043540289336662179_">
								<use xlink:href="#SVGID_00000112622919276466570490000008201151244984564127_"  style="overflow:visible;"/>
							</clipPath>
							<path style="clip-path:url(#SVGID_00000087401915832989465450000018043540289336662179_);" d="M74.3,218.4l-0.7-1.2
								c-1.7,1.1-3.1,2.5-4.2,4.2l1.2,0.7C71.6,220.6,72.9,219.3,74.3,218.4"/>
						</g>
					</g>
					<g>
						<g>
							<defs>
								<rect id="SVGID_00000048474715227865119450000007803496960327806875_" x="67.2" y="215" width="27.8" height="25.6"/>
							</defs>
							<clipPath id="SVGID_00000173849379976563814910000005660764415924122264_">
								<use xlink:href="#SVGID_00000048474715227865119450000007803496960327806875_"  style="overflow:visible;"/>
							</clipPath>
							<path style="clip-path:url(#SVGID_00000173849379976563814910000005660764415924122264_);" d="M93.6,228.2H95
								c-0.1-2.1-0.6-4-1.5-5.8l-1.2,0.7C93,224.7,93.5,226.4,93.6,228.2"/>
						</g>
					</g>
					<g>
						<g>
							<defs>
								<rect id="SVGID_00000005236517287266504080000005535198905735466685_" x="67.2" y="215" width="27.8" height="25.6"/>
							</defs>
							<clipPath id="SVGID_00000001654516925099952460000016397591229686273437_">
								<use xlink:href="#SVGID_00000005236517287266504080000005535198905735466685_"  style="overflow:visible;"/>
							</clipPath>
							<path style="clip-path:url(#SVGID_00000001654516925099952460000016397591229686273437_);" d="M80.5,216.4V215
								c-2.1,0.1-4,0.6-5.8,1.5l0.7,1.2C77,217,78.7,216.5,80.5,216.4"/>
						</g>
					</g>
					<g>
						<g>
							<defs>
								<rect id="SVGID_00000122690126783993911110000000024062671381274032_" x="67.2" y="215" width="27.8" height="25.6"/>
							</defs>
							<clipPath id="SVGID_00000131331667323699285940000003446318677702840988_">
								<use xlink:href="#SVGID_00000122690126783993911110000000024062671381274032_"  style="overflow:visible;"/>
							</clipPath>
							<path style="clip-path:url(#SVGID_00000131331667323699285940000003446318677702840988_);" d="M70.6,235.7l-1.2,0.7
								c1.1,1.7,2.5,3.1,4.2,4.2l0.7-1.2C72.9,238.4,71.6,237.1,70.6,235.7"/>
						</g>
					</g>
					<g>
						<g>
							<defs>
								<rect id="SVGID_00000050631180183116247500000013833624471203605430_" x="67.2" y="215" width="27.8" height="25.6"/>
							</defs>
							<clipPath id="SVGID_00000072243606396627962400000015874872763673744037_">
								<use xlink:href="#SVGID_00000050631180183116247500000013833624471203605430_"  style="overflow:visible;"/>
							</clipPath>
							<path style="clip-path:url(#SVGID_00000072243606396627962400000015874872763673744037_);" d="M87.9,239.4l0.7,1.2
								c1.7-1.1,3.1-2.5,4.2-4.2l-1.2-0.7C90.6,237.1,89.4,238.4,87.9,239.4"/>
						</g>
					</g>
					<g>
						<g>
							<defs>
								<rect id="SVGID_00000127002303711532708110000001499502760180774583_" x="67.2" y="215" width="27.8" height="25.6"/>
							</defs>
							<clipPath id="SVGID_00000129197991212550352470000000424825293449998229_">
								<use xlink:href="#SVGID_00000127002303711532708110000001499502760180774583_"  style="overflow:visible;"/>
							</clipPath>
							<path style="clip-path:url(#SVGID_00000129197991212550352470000000424825293449998229_);" d="M93.6,229.5
								c-0.1,1.8-0.6,3.5-1.4,5.1l1.2,0.7c0.9-1.7,1.5-3.7,1.5-5.8H93.6z"/>
						</g>
					</g>
					<g>
						<g>
							<defs>
								<rect id="SVGID_00000039128692073814547870000006290159341630326704_" x="67.2" y="215" width="27.8" height="25.6"/>
							</defs>
							<clipPath id="SVGID_00000158011705624452248070000012325427800059741873_">
								<use xlink:href="#SVGID_00000039128692073814547870000006290159341630326704_"  style="overflow:visible;"/>
							</clipPath>
							<path style="clip-path:url(#SVGID_00000158011705624452248070000012325427800059741873_);" d="M68.6,229.5h-1.4
								c0.1,2.1,0.6,4,1.5,5.8l1.2-0.7C69.2,233,68.7,231.3,68.6,229.5"/>
						</g>
					</g>
					<g>
						<g>
							<defs>
								<rect id="SVGID_00000182502482721797413320000003860642547800689293_" x="67.2" y="215" width="27.8" height="25.6"/>
							</defs>
							<clipPath id="SVGID_00000088092846022978107680000004307549207696728991_">
								<use xlink:href="#SVGID_00000182502482721797413320000003860642547800689293_"  style="overflow:visible;"/>
							</clipPath>
							<path style="clip-path:url(#SVGID_00000088092846022978107680000004307549207696728991_);" d="M70,223.2l-1.2-0.7
								c-0.9,1.7-1.5,3.7-1.5,5.8h1.4C68.7,226.4,69.2,224.7,70,223.2"/>
						</g>
					</g>
				</g>
			</g>
		</g>
	</g>
</g>
<g>
	<path d="M79.5,82.1h3.4c-0.1-4.9-1.5-9.5-3.6-13.5l-3,1.6C78.3,73.8,79.3,77.9,79.5,82.1z"/>
	<path d="M79.5,85c-0.1,4.3-1.3,8.3-3.1,11.9l3,1.6c2.1-4.1,3.4-8.6,3.6-13.5H79.5z"/>
	<path d="M63.6,57.5l1.6-3c-4.1-2.1-8.6-3.4-13.5-3.6v3.4C56.1,54.7,60.1,55.7,63.6,57.5z"/>
	<path d="M74.9,67.7l2.8-1.6c-2.5-4-5.9-7.4-9.9-9.9L66.2,59C69.7,61.3,72.7,64.3,74.9,67.7z"/>
	<path d="M34.4,58.9l-1.6-2.8c-4,2.5-7.4,5.9-9.9,9.9l2.8,1.6C28,64.3,31,61.3,34.4,58.9z"/>
	<path d="M48.8,54.4V51c-4.9,0.1-9.5,1.5-13.5,3.6l1.6,3C40.6,55.7,44.6,54.7,48.8,54.4z"/>
	<path d="M25.7,99.6l-2.8,1.6c2.5,4,5.9,7.4,9.9,9.9l1.6-2.8C31,105.9,28,103,25.7,99.6z"/>
	<path d="M66.3,108.1l1.6,2.8c4-2.5,7.4-5.9,9.9-9.9L75,99.4C72.7,103,69.7,105.9,66.3,108.1z"/>
	<path d="M21.1,85h-3.4c0.1,4.9,1.5,9.5,3.6,13.5l3-1.6C22.4,93.3,21.4,89.3,21.1,85z"/>
	<path d="M24.2,70.2l-3-1.6c-2.1,4.1-3.4,8.6-3.6,13.5H21C21.4,77.9,22.4,73.8,24.2,70.2z"/>
</g>
<g id="text">
	<g>
		<text transform="matrix(0.88 0 0 1 32.2021 129.7754)" class="st2 st37">Cutoff</text>
	</g>
	<g>
		<text transform="matrix(0.88 0 0 1 14.3687 195.0137)" class="st2 st37">Res</text>
	</g>
	<g>
		<text transform="matrix(0.88 0 0 1 40.8677 255.0752)" class="st38 st37">Res</text>
	</g>
	<g>
		<text transform="matrix(0.88 0 0 1 10.6494 255.0752)" class="st38 st37">Cut</text>
	</g>
	<g>
		<text transform="matrix(0.88 0 0 1 14.1943 344.4058)" class="st38 st37">In</text>
	</g>
	<g>
		<text transform="matrix(0.88 0 0 1 40.2495 344.4058)" class="st39 st38 st37">HPF</text>
	</g>
	<g>
		<text transform="matrix(0.88 0 0 1 71.9517 344.4058)" class="st39 st38 st37">LPF</text>
	</g>
	<g>
		<text transform="matrix(0.88 0 0 1 71.6631 255.0752)" class="st38 st37">Drv</text>
	</g>
	<g>
		<text transform="matrix(0.88 0 0 1 59.6846 195.0137)" class="st2 st37">Drive</text>
	</g>
</g>
</svg>
