<?xml version="1.0" encoding="utf-8"?>
<!-- Generator: Adobe Illustrator 28.1.0, SVG Export Plug-In . SVG Version: 6.00 Build 0)  -->
<svg version="1.1" xmlns="http://www.w3.org/2000/svg" xmlns:xlink="http://www.w3.org/1999/xlink" x="0px" y="0px"
	 viewBox="0 0 100.5 364.2" style="enable-background:new 0 0 100.5 364.2;" xml:space="preserve">
<style type="text/css">
	.st0{fill:url(#rect9_00000134234865612070089960000010258900292867235500_);}
	.st1{fill:#231F20;}
	.st2{font-family:'Verdana-Bold';}
	.st3{font-size:14px;}
	.st4{clip-path:url(#SVGID_00000064348386237350880720000001025022187962374300_);}
	.st5{clip-path:url(#SVGID_00000149348229485648398470000002227785659067512504_);}
	.st6{clip-path:url(#SVGID_00000167367049794272742860000015659992400332968083_);}
	.st7{clip-path:url(#SVGID_00000093878230628458052010000003125419234507700356_);}
	.st8{clip-path:url(#SVGID_00000028311097887842696620000008505521469552094624_);}
	.st9{clip-path:url(#SVGID_00000070813918489355687360000015770353280984340901_);}
	.st10{clip-path:url(#SVGID_00000143610697641802717490000000631518275082496896_);}
	.st11{clip-path:url(#SVGID_00000049901152088785850090000010534509344382576299_);}
	.st12{clip-path:url(#SVGID_00000121242666085226919870000011751046136229056414_);}
	.st13{clip-path:url(#SVGID_00000026852917206397112000000000602697025825188798_);}
	.st14{clip-path:url(#SVGID_00000099648959774114088110000002931398239112459412_);}
	.st15{clip-path:url(#SVGID_00000047765154966458509140000007115471672039310213_);}
	.st16{clip-path:url(#SVGID_00000051365124255833422240000014810383780733832872_);}
	.st17{clip-path:url(#SVGID_00000030462837185744210850000005399241715285014404_);}
	.st18{clip-path:url(#SVGID_00000085968927911454288920000003531773608883891632_);}
	.st19{clip-path:url(#SVGID_00000103236534965865265380000008702642333150248606_);}
	.st20{clip-path:url(#SVGID_00000140009822042746469190000003546403537478683275_);}
	.st21{clip-path:url(#SVGID_00000086662053002245382670000006223092482729890207_);}
	.st22{clip-path:url(#SVGID_00000090999886504166942380000010286775196563172536_);}
	.st23{clip-path:url(#SVGID_00000136403451076992022310000001198478781112272051_);}
	.st24{clip-path:url(#SVGID_00000129892196667208684470000012767230391332518536_);}
	.st25{clip-path:url(#SVGID_00000158724420823545718210000014583581855409931710_);}
	.st26{clip-path:url(#SVGID_00000004511478331709845230000002490617039817015692_);}
	.st27{clip-path:url(#SVGID_00000124865995969602393940000010790816630922074540_);}
	.st28{clip-path:url(#SVGID_00000049180280629629545830000006627098736330991514_);}
	.st29{clip-path:url(#SVGID_00000052064532644369929920000006821146682169340553_);}
	.st30{clip-path:url(#SVGID_00000183221356168269935190000007235156629074087059_);}
	.st31{clip-path:url(#SVGID_00000071551764698803476600000016402575343495377342_);}
	.st32{clip-path:url(#SVGID_00000049922919452256973010000001623083288003493023_);}
	.st33{clip-path:url(#SVGID_00000049181524569843848520000006842087808349022129_);}
	.st34{clip-path:url(#SVGID_00000119797397652164308360000016543350712751300993_);}
	.st35{clip-path:url(#SVGID_00000063600959903897057240000010706952337600334237_);}
	.st36{clip-path:url(#SVGID_00000101105289509905722500000015136668497527973818_);}
	.st37{font-size:12px;}
	.st38{font-family:'Verdana';}
	.st39{fill:#FFFFFF;}
	.st40{fill:#0000FF;}
	.st41{fill:#00FF00;}
	.st42{fill:#FF0000;}
</style>
<g id="artwork" xmlns:cc="http://creativecommons.org/ns#" xmlns:dc="http://purl.org/dc/elements/1.1/" xmlns:rdf="http://www.w3.org/1999/02/22-rdf-syntax-ns#" xmlns:svg="http://www.w3.org/2000/svg" xmlns:inkscape="http://www.inkscape.org/namespaces/inkscape" xmlns:sodipodi="http://sodipodi.sourceforge.net/DTD/sodipodi-0.dtd">
	
		<linearGradient id="rect9_00000085213333912349696490000011601938548083250603_" gradientUnits="userSpaceOnUse" x1="50.2857" y1="381.9812" x2="50.2857" y2="17.7332" gradientTransform="matrix(1 0 0 -1 0 381.9623)">
		<stop  offset="0" style="stop-color:#EBEBEB"/>
		<stop  offset="1" style="stop-color:#E1E1E1"/>
	</linearGradient>
	
		<rect id="rect9" x="0" y="0" style="fill:url(#rect9_00000085213333912349696490000011601938548083250603_);" width="100.6" height="364.2"/>
	<path class="st1" d="M83.4,351.7H48.3c-7.2,0-13.1-5.9-13.1-13.1v-22.7c0-7.2,5.9-13.1,13.1-13.1h35.1c7.2,0,13.1,5.9,13.1,13.1
		v22.7C96.5,345.8,90.6,351.7,83.4,351.7z"/>
	<g>
		<text transform="matrix(1 0 0 1 35.5177 20.907)" class="st2 st3">VCF</text>
	</g>
	<g id="pips_-_fewest_00000167356821747877680020000001811524091594256813_">
		<g>
			<g>
				<defs>
					<rect id="SVGID_1_" x="5.9" y="215" width="27.8" height="25.6"/>
				</defs>
				<clipPath id="SVGID_00000073700427933149462910000009955104011374579624_">
					<use xlink:href="#SVGID_1_"  style="overflow:visible;"/>
				</clipPath>
				<g style="clip-path:url(#SVGID_00000073700427933149462910000009955104011374579624_);">
					<g>
						<defs>
							<rect id="SVGID_00000037690285972885950760000002569012057366524074_" x="5.9" y="215" width="27.8" height="25.6"/>
						</defs>
						<clipPath id="SVGID_00000168808592051886405970000011474078618402637749_">
							<use xlink:href="#SVGID_00000037690285972885950760000002569012057366524074_"  style="overflow:visible;"/>
						</clipPath>
						<path style="clip-path:url(#SVGID_00000168808592051886405970000011474078618402637749_);" d="M25.5,217.8l0.7-1.2
							c-1.7-0.9-3.7-1.5-5.8-1.5v1.4C22.3,216.5,24,217,25.5,217.8"/>
					</g>
					<g>
						<defs>
							<rect id="SVGID_00000051361953387792147480000008205882218123219127_" x="5.9" y="215" width="27.8" height="25.6"/>
						</defs>
						<clipPath id="SVGID_00000104695859665578965050000003747022478251028653_">
							<use xlink:href="#SVGID_00000051361953387792147480000008205882218123219127_"  style="overflow:visible;"/>
						</clipPath>
						<path style="clip-path:url(#SVGID_00000104695859665578965050000003747022478251028653_);" d="M30.3,222.1l1.2-0.7
							c-1.1-1.7-2.5-3.1-4.2-4.2l-0.7,1.2C28.1,219.3,29.4,220.6,30.3,222.1"/>
					</g>
					<g>
						<defs>
							<rect id="SVGID_00000041278431806656373870000001379490275061886896_" x="5.9" y="215" width="27.8" height="25.6"/>
						</defs>
						<clipPath id="SVGID_00000008827220210080405380000001540968617814001571_">
							<use xlink:href="#SVGID_00000041278431806656373870000001379490275061886896_"  style="overflow:visible;"/>
						</clipPath>
						<path style="clip-path:url(#SVGID_00000008827220210080405380000001540968617814001571_);" d="M13,218.4l-0.7-1.2
							c-1.7,1.1-3.1,2.5-4.2,4.2l1.2,0.7C10.3,220.6,11.6,219.3,13,218.4"/>
					</g>
					<g>
						<defs>
							<rect id="SVGID_00000075140250105040281550000000521860038467138968_" x="5.9" y="215" width="27.8" height="25.6"/>
						</defs>
						<clipPath id="SVGID_00000144307446815796878710000014469225729977458867_">
							<use xlink:href="#SVGID_00000075140250105040281550000000521860038467138968_"  style="overflow:visible;"/>
						</clipPath>
						<path style="clip-path:url(#SVGID_00000144307446815796878710000014469225729977458867_);" d="M32.3,228.2h1.4
							c-0.1-2.1-0.6-4-1.5-5.8l-1.2,0.7C31.7,224.7,32.2,226.4,32.3,228.2"/>
					</g>
					<g>
						<defs>
							<rect id="SVGID_00000059305496962109497880000006281044593113003143_" x="5.9" y="215" width="27.8" height="25.6"/>
						</defs>
						<clipPath id="SVGID_00000046297449749241193520000014480531186751243953_">
							<use xlink:href="#SVGID_00000059305496962109497880000006281044593113003143_"  style="overflow:visible;"/>
						</clipPath>
						<path style="clip-path:url(#SVGID_00000046297449749241193520000014480531186751243953_);" d="M19.2,216.4V215
							c-2.1,0.1-4,0.6-5.8,1.5l0.7,1.2C15.7,217,17.4,216.5,19.2,216.4"/>
					</g>
					<g>
						<defs>
							<rect id="SVGID_00000039840117817036122220000017320524436599763631_" x="5.9" y="215" width="27.8" height="25.6"/>
						</defs>
						<clipPath id="SVGID_00000056403808998874692470000016631746193284458675_">
							<use xlink:href="#SVGID_00000039840117817036122220000017320524436599763631_"  style="overflow:visible;"/>
						</clipPath>
						<path style="clip-path:url(#SVGID_00000056403808998874692470000016631746193284458675_);" d="M9.3,235.7l-1.2,0.7
							c1.1,1.7,2.5,3.1,4.2,4.2l0.7-1.2C11.6,238.4,10.3,237.1,9.3,235.7"/>
					</g>
					<g>
						<defs>
							<rect id="SVGID_00000017499171417710876920000001548204366964702096_" x="5.9" y="215" width="27.8" height="25.6"/>
						</defs>
						<clipPath id="SVGID_00000181796848070342020250000004687593819323092886_">
							<use xlink:href="#SVGID_00000017499171417710876920000001548204366964702096_"  style="overflow:visible;"/>
						</clipPath>
						<path style="clip-path:url(#SVGID_00000181796848070342020250000004687593819323092886_);" d="M26.6,239.4l0.7,1.2
							c1.7-1.1,3.1-2.5,4.2-4.2l-1.2-0.7C29.3,237.1,28.1,238.4,26.6,239.4"/>
					</g>
					<g>
						<defs>
							<rect id="SVGID_00000055691677194025113830000010636920842031592583_" x="5.9" y="215" width="27.8" height="25.6"/>
						</defs>
						<clipPath id="SVGID_00000041268478758936786830000000542792767178920119_">
							<use xlink:href="#SVGID_00000055691677194025113830000010636920842031592583_"  style="overflow:visible;"/>
						</clipPath>
						<path style="clip-path:url(#SVGID_00000041268478758936786830000000542792767178920119_);" d="M32.3,229.5
							c-0.1,1.8-0.6,3.5-1.4,5.1l1.2,0.7c0.9-1.7,1.5-3.7,1.5-5.8H32.3z"/>
					</g>
					<g>
						<defs>
							<rect id="SVGID_00000160148010294907248550000001110734200746441646_" x="5.9" y="215" width="27.8" height="25.6"/>
						</defs>
						<clipPath id="SVGID_00000021808618778036613200000013941086062125286038_">
							<use xlink:href="#SVGID_00000160148010294907248550000001110734200746441646_"  style="overflow:visible;"/>
						</clipPath>
						<path style="clip-path:url(#SVGID_00000021808618778036613200000013941086062125286038_);" d="M7.3,229.5H5.9
							c0.1,2.1,0.6,4,1.5,5.8l1.2-0.7C7.9,233,7.4,231.3,7.3,229.5"/>
					</g>
					<g>
						<defs>
							<rect id="SVGID_00000165211404963795300210000012995299296260563631_" x="5.9" y="215" width="27.8" height="25.6"/>
						</defs>
						<clipPath id="SVGID_00000011732102015893700800000003381248707394478502_">
							<use xlink:href="#SVGID_00000165211404963795300210000012995299296260563631_"  style="overflow:visible;"/>
						</clipPath>
						<path style="clip-path:url(#SVGID_00000011732102015893700800000003381248707394478502_);" d="M8.7,223.2l-1.2-0.7
							c-0.9,1.7-1.5,3.7-1.5,5.8h1.4C7.4,226.4,7.9,224.7,8.7,223.2"/>
					</g>
				</g>
			</g>
		</g>
	</g>
	<g id="pips_-_fewest_00000083071148514392843770000005633327471756959131_">
		<g>
			<g>
				<defs>
					<rect id="SVGID_00000078036126862832488140000013878724743261105574_" x="36.5" y="215" width="27.8" height="25.6"/>
				</defs>
				<clipPath id="SVGID_00000095303374796411073110000000795463706517045907_">
					<use xlink:href="#SVGID_00000078036126862832488140000013878724743261105574_"  style="overflow:visible;"/>
				</clipPath>
				<g style="clip-path:url(#SVGID_00000095303374796411073110000000795463706517045907_);">
					<g>
						<defs>
							<rect id="SVGID_00000020390555864981251870000002820203543307830699_" x="36.5" y="215" width="27.8" height="25.6"/>
						</defs>
						<clipPath id="SVGID_00000093157396237276165320000014017905794940044730_">
							<use xlink:href="#SVGID_00000020390555864981251870000002820203543307830699_"  style="overflow:visible;"/>
						</clipPath>
						<path style="clip-path:url(#SVGID_00000093157396237276165320000014017905794940044730_);" d="M56.1,217.8l0.7-1.2
							c-1.7-0.9-3.7-1.5-5.8-1.5v1.4C52.9,216.5,54.6,217,56.1,217.8"/>
					</g>
					<g>
						<defs>
							<rect id="SVGID_00000169547474307397419380000009856201089885076918_" x="36.5" y="215" width="27.8" height="25.6"/>
						</defs>
						<clipPath id="SVGID_00000071552059419277386140000018444063285142195623_">
							<use xlink:href="#SVGID_00000169547474307397419380000009856201089885076918_"  style="overflow:visible;"/>
						</clipPath>
						<path style="clip-path:url(#SVGID_00000071552059419277386140000018444063285142195623_);" d="M60.9,222.1l1.2-0.7
							c-1.1-1.7-2.5-3.1-4.2-4.2l-0.7,1.2C58.7,219.3,60,220.6,60.9,222.1"/>
					</g>
					<g>
						<defs>
							<rect id="SVGID_00000091711996783523541210000009781965905405760434_" x="36.5" y="215" width="27.8" height="25.6"/>
						</defs>
						<clipPath id="SVGID_00000170268844277112419560000015313751507514037408_">
							<use xlink:href="#SVGID_00000091711996783523541210000009781965905405760434_"  style="overflow:visible;"/>
						</clipPath>
						<path style="clip-path:url(#SVGID_00000170268844277112419560000015313751507514037408_);" d="M43.6,218.4l-0.7-1.2
							c-1.7,1.1-3.1,2.5-4.2,4.2l1.2,0.7C40.9,220.6,42.2,219.3,43.6,218.4"/>
					</g>
					<g>
						<defs>
							<rect id="SVGID_00000152231244099391786120000018335418983140469151_" x="36.5" y="215" width="27.8" height="25.6"/>
						</defs>
						<clipPath id="SVGID_00000017494053476308245310000014823947397058455224_">
							<use xlink:href="#SVGID_00000152231244099391786120000018335418983140469151_"  style="overflow:visible;"/>
						</clipPath>
						<path style="clip-path:url(#SVGID_00000017494053476308245310000014823947397058455224_);" d="M62.9,228.2h1.4
							c-0.1-2.1-0.6-4-1.5-5.8l-1.2,0.7C62.3,224.7,62.8,226.4,62.9,228.2"/>
					</g>
					<g>
						<defs>
							<rect id="SVGID_00000072244214956824755250000010499136212583057334_" x="36.5" y="215" width="27.8" height="25.6"/>
						</defs>
						<clipPath id="SVGID_00000127760775731808292230000010855753814749363878_">
							<use xlink:href="#SVGID_00000072244214956824755250000010499136212583057334_"  style="overflow:visible;"/>
						</clipPath>
						<path style="clip-path:url(#SVGID_00000127760775731808292230000010855753814749363878_);" d="M49.8,216.4V215
							c-2.1,0.1-4,0.6-5.8,1.5l0.7,1.2C46.3,217,48,216.5,49.8,216.4"/>
					</g>
					<g>
						<defs>
							<rect id="SVGID_00000008830560853466870590000016010923854799274920_" x="36.5" y="215" width="27.8" height="25.6"/>
						</defs>
						<clipPath id="SVGID_00000042696808167744113280000011582280241343661954_">
							<use xlink:href="#SVGID_00000008830560853466870590000016010923854799274920_"  style="overflow:visible;"/>
						</clipPath>
						<path style="clip-path:url(#SVGID_00000042696808167744113280000011582280241343661954_);" d="M39.9,235.7l-1.2,0.7
							c1.1,1.7,2.5,3.1,4.2,4.2l0.7-1.2C42.2,238.4,40.9,237.1,39.9,235.7"/>
					</g>
					<g>
						<defs>
							<rect id="SVGID_00000152225318342335457900000003052193680231174276_" x="36.5" y="215" width="27.8" height="25.6"/>
						</defs>
						<clipPath id="SVGID_00000087406216629342938670000010946884799886622100_">
							<use xlink:href="#SVGID_00000152225318342335457900000003052193680231174276_"  style="overflow:visible;"/>
						</clipPath>
						<path style="clip-path:url(#SVGID_00000087406216629342938670000010946884799886622100_);" d="M57.2,239.4l0.7,1.2
							c1.7-1.1,3.1-2.5,4.2-4.2l-1.2-0.7C59.9,237.1,58.7,238.4,57.2,239.4"/>
					</g>
					<g>
						<defs>
							<rect id="SVGID_00000151505475443762897080000006512088434074041518_" x="36.5" y="215" width="27.8" height="25.6"/>
						</defs>
						<clipPath id="SVGID_00000018206231615863083390000005332768829539213962_">
							<use xlink:href="#SVGID_00000151505475443762897080000006512088434074041518_"  style="overflow:visible;"/>
						</clipPath>
						<path style="clip-path:url(#SVGID_00000018206231615863083390000005332768829539213962_);" d="M62.9,229.5
							c-0.1,1.8-0.6,3.5-1.4,5.1l1.2,0.7c0.9-1.7,1.5-3.7,1.5-5.8H62.9z"/>
					</g>
					<g>
						<defs>
							<rect id="SVGID_00000170270934358857698910000013328702283355755426_" x="36.5" y="215" width="27.8" height="25.6"/>
						</defs>
						<clipPath id="SVGID_00000081624249049892007680000009024326938026195620_">
							<use xlink:href="#SVGID_00000170270934358857698910000013328702283355755426_"  style="overflow:visible;"/>
						</clipPath>
						<path style="clip-path:url(#SVGID_00000081624249049892007680000009024326938026195620_);" d="M37.9,229.5h-1.4
							c0.1,2.1,0.6,4,1.5,5.8l1.2-0.7C38.5,233,38,231.3,37.9,229.5"/>
					</g>
					<g>
						<defs>
							<rect id="SVGID_00000001661576159241920080000004435404895901170838_" x="36.5" y="215" width="27.8" height="25.6"/>
						</defs>
						<clipPath id="SVGID_00000048485214539235722890000011402018618149398663_">
							<use xlink:href="#SVGID_00000001661576159241920080000004435404895901170838_"  style="overflow:visible;"/>
						</clipPath>
						<path style="clip-path:url(#SVGID_00000048485214539235722890000011402018618149398663_);" d="M39.3,223.2l-1.2-0.7
							c-0.9,1.7-1.5,3.7-1.5,5.8H38C38,226.4,38.5,224.7,39.3,223.2"/>
					</g>
				</g>
			</g>
		</g>
	</g>
	<g id="pips_-_fewest_00000028327426251515959130000009944612699668579725_">
		<g>
			<g>
				<defs>
					<rect id="SVGID_00000028297798529861935130000013822940354855420854_" x="67.2" y="215" width="27.8" height="25.6"/>
				</defs>
				<clipPath id="SVGID_00000075121336955955746900000016780386097900787586_">
					<use xlink:href="#SVGID_00000028297798529861935130000013822940354855420854_"  style="overflow:visible;"/>
				</clipPath>
				<g style="clip-path:url(#SVGID_00000075121336955955746900000016780386097900787586_);">
					<g>
						<defs>
							<rect id="SVGID_00000067213627095576101180000000201066539518908322_" x="67.2" y="215" width="27.8" height="25.6"/>
						</defs>
						<clipPath id="SVGID_00000042733509935977701230000007741499786065022654_">
							<use xlink:href="#SVGID_00000067213627095576101180000000201066539518908322_"  style="overflow:visible;"/>
						</clipPath>
						<path style="clip-path:url(#SVGID_00000042733509935977701230000007741499786065022654_);" d="M86.8,217.8l0.7-1.2
							c-1.7-0.9-3.7-1.5-5.8-1.5v1.4C83.6,216.5,85.3,217,86.8,217.8"/>
					</g>
					<g>
						<defs>
							<rect id="SVGID_00000132768091613919515140000014584130827974244995_" x="67.2" y="215" width="27.8" height="25.6"/>
						</defs>
						<clipPath id="SVGID_00000083809809485833708040000018352113146413993617_">
							<use xlink:href="#SVGID_00000132768091613919515140000014584130827974244995_"  style="overflow:visible;"/>
						</clipPath>
						<path style="clip-path:url(#SVGID_00000083809809485833708040000018352113146413993617_);" d="M91.6,222.1l1.2-0.7
							c-1.1-1.7-2.5-3.1-4.2-4.2l-0.7,1.2C89.4,219.3,90.7,220.6,91.6,222.1"/>
					</g>
					<g>
						<defs>
							<rect id="SVGID_00000003820456162151588890000018055503388347507612_" x="67.2" y="215" width="27.8" height="25.6"/>
						</defs>
						<clipPath id="SVGID_00000163035583760396796730000012876102005599278003_">
							<use xlink:href="#SVGID_00000003820456162151588890000018055503388347507612_"  style="overflow:visible;"/>
						</clipPath>
						<path style="clip-path:url(#SVGID_00000163035583760396796730000012876102005599278003_);" d="M74.3,218.4l-0.7-1.2
							c-1.7,1.1-3.1,2.5-4.2,4.2l1.2,0.7C71.6,220.6,72.9,219.3,74.3,218.4"/>
					</g>
					<g>
						<defs>
							<rect id="SVGID_00000124874517762241106850000017239544389335517117_" x="67.2" y="215" width="27.8" height="25.6"/>
						</defs>
						<clipPath id="SVGID_00000085932016085361428630000000537015276527661441_">
							<use xlink:href="#SVGID_00000124874517762241106850000017239544389335517117_"  style="overflow:visible;"/>
						</clipPath>
						<path style="clip-path:url(#SVGID_00000085932016085361428630000000537015276527661441_);" d="M93.6,228.2H95
							c-0.1-2.1-0.6-4-1.5-5.8l-1.2,0.7C93,224.7,93.5,226.4,93.6,228.2"/>
					</g>
					<g>
						<defs>
							<rect id="SVGID_00000025413481801496088820000013212188217235433392_" x="67.2" y="215" width="27.8" height="25.6"/>
						</defs>
						<clipPath id="SVGID_00000106111361134514843640000015428552266189869205_">
							<use xlink:href="#SVGID_00000025413481801496088820000013212188217235433392_"  style="overflow:visible;"/>
						</clipPath>
						<path style="clip-path:url(#SVGID_00000106111361134514843640000015428552266189869205_);" d="M80.5,216.4V215
							c-2.1,0.1-4,0.6-5.8,1.5l0.7,1.2C77,217,78.7,216.5,80.5,216.4"/>
					</g>
					<g>
						<defs>
							<rect id="SVGID_00000106842556109369725520000002784645445995863705_" x="67.2" y="215" width="27.8" height="25.6"/>
						</defs>
						<clipPath id="SVGID_00000148659470888661259940000004521742094664481453_">
							<use xlink:href="#SVGID_00000106842556109369725520000002784645445995863705_"  style="overflow:visible;"/>
						</clipPath>
						<path style="clip-path:url(#SVGID_00000148659470888661259940000004521742094664481453_);" d="M70.6,235.7l-1.2,0.7
							c1.1,1.7,2.5,3.1,4.2,4.2l0.7-1.2C72.9,238.4,71.6,237.1,70.6,235.7"/>
					</g>
					<g>
						<defs>
							<rect id="SVGID_00000080203635392655202460000013096529543400376218_" x="67.2" y="215" width="27.8" height="25.6"/>
						</defs>
						<clipPath id="SVGID_00000090976602040925324330000001700867262029282437_">
							<use xlink:href="#SVGID_00000080203635392655202460000013096529543400376218_"  style="overflow:visible;"/>
						</clipPath>
						<path style="clip-path:url(#SVGID_00000090976602040925324330000001700867262029282437_);" d="M87.9,239.4l0.7,1.2
							c1.7-1.1,3.1-2.5,4.2-4.2l-1.2-0.7C90.6,237.1,89.4,238.4,87.9,239.4"/>
					</g>
					<g>
						<defs>
							<rect id="SVGID_00000146465922872805178280000003141786440897284508_" x="67.2" y="215" width="27.8" height="25.6"/>
						</defs>
						<clipPath id="SVGID_00000106852228507205905060000005237518836140157840_">
							<use xlink:href="#SVGID_00000146465922872805178280000003141786440897284508_"  style="overflow:visible;"/>
						</clipPath>
						<path style="clip-path:url(#SVGID_00000106852228507205905060000005237518836140157840_);" d="M93.6,229.5
							c-0.1,1.8-0.6,3.5-1.4,5.1l1.2,0.7c0.9-1.7,1.5-3.7,1.5-5.8H93.6z"/>
					</g>
					<g>
						<defs>
							<rect id="SVGID_00000010288271649145153500000006519655595010274744_" x="67.2" y="215" width="27.8" height="25.6"/>
						</defs>
						<clipPath id="SVGID_00000124881291443451649760000014394651939528394939_">
							<use xlink:href="#SVGID_00000010288271649145153500000006519655595010274744_"  style="overflow:visible;"/>
						</clipPath>
						<path style="clip-path:url(#SVGID_00000124881291443451649760000014394651939528394939_);" d="M68.6,229.5h-1.4
							c0.1,2.1,0.6,4,1.5,5.8l1.2-0.7C69.2,233,68.7,231.3,68.6,229.5"/>
					</g>
					<g>
						<defs>
							<rect id="SVGID_00000065056073762686551410000010518438986521433241_" x="67.2" y="215" width="27.8" height="25.6"/>
						</defs>
						<clipPath id="SVGID_00000119117174467847469670000002113171939443652995_">
							<use xlink:href="#SVGID_00000065056073762686551410000010518438986521433241_"  style="overflow:visible;"/>
						</clipPath>
						<path style="clip-path:url(#SVGID_00000119117174467847469670000002113171939443652995_);" d="M70,223.2l-1.2-0.7
							c-0.9,1.7-1.5,3.7-1.5,5.8h1.4C68.7,226.4,69.2,224.7,70,223.2"/>
					</g>
				</g>
			</g>
		</g>
	</g>
	<g>
		<path d="M79.5,82.1h3.4c-0.1-4.9-1.5-9.5-3.6-13.5l-3,1.6C78.3,73.8,79.3,77.9,79.5,82.1z"/>
		<path d="M79.5,85c-0.1,4.3-1.3,8.3-3.1,11.9l3,1.6c2.1-4.1,3.4-8.6,3.6-13.5H79.5z"/>
		<path d="M63.6,57.5l1.6-3c-4.1-2.1-8.6-3.4-13.5-3.6v3.4C56.1,54.7,60.1,55.7,63.6,57.5z"/>
		<path d="M74.9,67.7l2.8-1.6c-2.5-4-5.9-7.4-9.9-9.9l-1.6,2.8C69.7,61.3,72.7,64.3,74.9,67.7z"/>
		<path d="M34.4,58.9l-1.6-2.8c-4,2.5-7.4,5.9-9.9,9.9l2.8,1.6C28,64.3,31,61.3,34.4,58.9z"/>
		<path d="M48.8,54.4v-3.4c-4.9,0.1-9.5,1.5-13.5,3.6l1.6,3C40.6,55.7,44.6,54.7,48.8,54.4z"/>
		<path d="M25.7,99.6l-2.8,1.6c2.5,4,5.9,7.4,9.9,9.9l1.6-2.8C31,105.9,28,103,25.7,99.6z"/>
		<path d="M66.3,108.1l1.6,2.8c4-2.5,7.4-5.9,9.9-9.9L75,99.4C72.7,103,69.7,105.9,66.3,108.1z"/>
		<path d="M21.1,85h-3.4c0.1,4.9,1.5,9.5,3.6,13.5l3-1.6C22.4,93.3,21.4,89.3,21.1,85z"/>
		<path d="M24.2,70.2l-3-1.6c-2.1,4.1-3.4,8.6-3.6,13.5h3.4C21.4,77.9,22.4,73.8,24.2,70.2z"/>
	</g>
	<g id="text">
		<g>
			<text transform="matrix(0.88 0 0 1 32.2019 129.7755)" class="st2 st37">Cutoff</text>
		</g>
		<g>
			<text transform="matrix(0.88 0 0 1 14.3683 195.0139)" class="st2 st37">Res</text>
		</g>
		<g>
			<text transform="matrix(0.88 0 0 1 40.8675 255.0754)" class="st38 st37">Res</text>
		</g>
		<g>
			<text transform="matrix(0.88 0 0 1 10.6492 255.0754)" class="st38 st37">Cut</text>
		</g>
		<g>
			<text transform="matrix(0.88 0 0 1 14.1941 344.4057)" class="st38 st37">In</text>
		</g>
		<g>
			<text transform="matrix(0.88 0 0 1 40.2492 344.4057)" class="st39 st38 st37">HPF</text>
		</g>
		<g>
			<text transform="matrix(0.88 0 0 1 71.9516 344.4057)" class="st39 st38 st37">LPF</text>
		</g>
		<g>
			<text transform="matrix(0.88 0 0 1 71.6627 255.0754)" class="st38 st37">Drv</text>
		</g>
		<g>
			<text transform="matrix(0.88 0 0 1 59.6843 195.0139)" class="st2 st37">Drive</text>
		</g>
	</g>
</g>
<g id="components">
	<circle id="HPF_Out" class="st40" cx="50.4" cy="320.1" r="4.8"/>
	<circle id="LPF_Out" class="st40" cx="81.1" cy="320.1" r="4.8"/>
	<circle id="Drive_CV" class="st41" cx="81.1" cy="274" r="4.8"/>
	<circle id="Res_CV" class="st41" cx="50.4" cy="274" r="4.8"/>
	<circle id="Cutoff_CV" class="st41" cx="19.8" cy="274" r="4.8"/>
	<circle id="Input" class="st41" cx="19.8" cy="320.1" r="4.8"/>
	<circle id="Cutoff_Atten." class="st42" cx="19.8" cy="228.1" r="4.8"/>
	<circle id="Res_Atten." class="st42" cx="50.4" cy="228.1" r="4.8"/>
	<circle id="Drive_Atten." class="st42" cx="81.1" cy="228.1" r="4.8"/>
	<circle id="Drive" class="st42" cx="75.4" cy="159.6" r="4.8"/>
	<circle id="Res" class="st42" cx="25.1" cy="159.6" r="4.8"/>
	<circle id="Cutoff" class="st42" cx="49.7" cy="84.3" r="4.8"/>
</g>
</svg>
