<?xml version="1.0" encoding="utf-8"?>
<!-- Generator: Adobe Illustrator 28.1.0, SVG Export Plug-In . SVG Version: 6.00 Build 0)  -->
<svg version="1.1" id="Layer_1" xmlns="http://www.w3.org/2000/svg" xmlns:xlink="http://www.w3.org/1999/xlink" x="0px" y="0px"
	 viewBox="0 0 129.4 364.3" style="enable-background:new 0 0 129.4 364.3;" xml:space="preserve">
<style type="text/css">
	.st0{fill:#EDEDED;stroke:#9D9D9E;stroke-width:0.25;stroke-miterlimit:10;}
	.st1{font-family:'Verdana';}
	.st2{font-size:12px;}
	.st3{font-size:11px;}
	.st4{fill:#231F20;}
	.st5{fill:#FFFFFF;}
	.st6{font-family:'Verdana-Bold';}
	.st7{font-size:14px;}
	.st8{fill:none;stroke:#231F20;stroke-miterlimit:10;}
	.st9{clip-path:url(#SVGID_00000183228926154544804810000017043234434268319416_);}
	.st10{clip-path:url(#SVGID_00000113346568617591514340000017804037337168053688_);}
	.st11{clip-path:url(#SVGID_00000075868869734292779330000016860646414993577897_);}
	.st12{clip-path:url(#SVGID_00000055665443775439325760000008086368878226891920_);}
	.st13{clip-path:url(#SVGID_00000011029014780147337180000011378591038965668763_);}
	.st14{clip-path:url(#SVGID_00000042701876788141110890000015051837259742911416_);}
	.st15{clip-path:url(#SVGID_00000037657855218377844680000004375985318336564386_);}
	.st16{clip-path:url(#SVGID_00000112599045452915979360000014788723226032881806_);}
	.st17{clip-path:url(#SVGID_00000172404244189142157880000016661253495383786400_);}
	.st18{clip-path:url(#SVGID_00000054254395477697133420000008709835780096403645_);}
	.st19{clip-path:url(#SVGID_00000060737949082565472740000008127756391800534440_);}
	.st20{clip-path:url(#SVGID_00000179639762905158662730000012619391510421738938_);}
	.st21{clip-path:url(#SVGID_00000013900947620332483470000010194033667367702197_);}
	.st22{clip-path:url(#SVGID_00000081647625994779882020000002532858136727118213_);}
	.st23{clip-path:url(#SVGID_00000035505711281841446460000003483978074926550682_);}
	.st24{clip-path:url(#SVGID_00000135686355181399666660000012551265372208820907_);}
	.st25{clip-path:url(#SVGID_00000124157599700051582210000009662345748252877185_);}
	.st26{clip-path:url(#SVGID_00000063610584752851095290000017695973817838691988_);}
	.st27{clip-path:url(#SVGID_00000055690364524923319620000003012881670117102485_);}
	.st28{clip-path:url(#SVGID_00000123422682067913172630000007496554196235443100_);}
	.st29{clip-path:url(#SVGID_00000029037732645669749810000003930633632513716130_);}
	.st30{clip-path:url(#SVGID_00000101790204749788320190000014213393166739263116_);}
	.st31{display:none;}
	.st32{display:inline;fill:#FF00FF;}
	.st33{display:inline;fill:#FF0000;}
	.st34{display:inline;fill:#00FF00;}
	.st35{display:inline;fill:#0000FF;}
</style>
<g id="artwork">
	<rect class="st0" width="129.4" height="364.3"/>
	<g>
		<text transform="matrix(0.88 0 0 1 37.2481 126.4276)" class="st1 st2">Frequency</text>
	</g>
	<g>
		<text transform="matrix(0.88 0 0 1 33.5926 195.4401)" class="st1 st2">Pulse Width</text>
	</g>
	<g>
		<path d="M94,84h3.4c-0.1-4.9-1.5-9.5-3.6-13.5l-3,1.6C92.8,75.7,93.8,79.9,94,84z"/>
		<path d="M94,87c-0.1,4.3-1.3,8.3-3.1,11.9l3,1.6c2.1-4.1,3.4-8.6,3.6-13.5H94z"/>
		<path d="M78.1,59.4l1.6-3c-4.1-2.1-8.6-3.4-13.5-3.6v3.4C70.6,56.6,74.6,57.7,78.1,59.4z"/>
		<path d="M89.4,69.7l2.8-1.6c-2.5-4-5.9-7.4-9.9-9.9l-1.6,2.8C84.2,63.3,87.2,66.3,89.4,69.7z"/>
		<path d="M48.9,60.9l-1.6-2.8c-4,2.5-7.4,5.9-9.9,9.9l2.8,1.6C42.6,66.3,45.5,63.3,48.9,60.9z"/>
		<path d="M63.3,56.3v-3.4c-4.9,0.1-9.5,1.5-13.5,3.6l1.6,3C55.2,57.7,59.2,56.6,63.3,56.3z"/>
		<path d="M40.2,101.5l-2.8,1.6c2.5,4,5.9,7.4,9.9,9.9l1.6-2.8C45.5,107.9,42.6,104.9,40.2,101.5z"/>
		<path d="M80.8,110.1l1.6,2.8c4-2.5,7.4-5.9,9.9-9.9l-2.8-1.6C87.2,104.9,84.2,107.9,80.8,110.1z"/>
		<path d="M35.6,87h-3.4c0.1,4.9,1.5,9.5,3.6,13.5l3-1.6C36.9,95.3,35.9,91.3,35.6,87z"/>
		<path d="M38.7,72.2l-3-1.6c-2.1,4.1-3.4,8.6-3.6,13.5h3.4C35.9,79.9,36.9,75.7,38.7,72.2z"/>
	</g>
	<g>
		<path d="M87.8,159.2h2.7c-0.1-3.8-1.2-7.5-2.8-10.6l-2.3,1.3C86.8,152.7,87.6,155.9,87.8,159.2z"/>
		<path d="M87.8,161.6c-0.1,3.4-1,6.5-2.4,9.3l2.3,1.3c1.6-3.3,2.7-6.8,2.8-10.6H87.8z"/>
		<path d="M75.3,139.9l1.3-2.3c-3.3-1.6-6.8-2.7-10.6-2.8v2.7C69.3,137.6,72.5,138.4,75.3,139.9z"/>
		<path d="M84.1,147.8l2.2-1.3c-2-3.1-4.7-5.8-7.8-7.8l-1.3,2.2C80.1,142.8,82.4,145.1,84.1,147.8z"/>
		<path d="M52.3,141l-1.3-2.2c-3.1,2-5.8,4.7-7.8,7.8l2.2,1.3C47.3,145.1,49.6,142.8,52.3,141z"/>
		<path d="M63.6,137.3v-2.7c-3.8,0.1-7.5,1.2-10.6,2.8l1.3,2.3C57.2,138.4,60.4,137.6,63.6,137.3z"/>
		<path d="M45.5,172.9l-2.2,1.3c2,3.1,4.7,5.8,7.8,7.8l1.3-2.2C49.6,177.9,47.3,175.6,45.5,172.9z"/>
		<path d="M77.4,179.6l1.3,2.2c3.1-2,5.8-4.7,7.8-7.8l-2.2-1.3C82.4,175.6,80.1,177.9,77.4,179.6z"/>
		<path d="M41.8,161.6h-2.7c0.1,3.8,1.2,7.5,2.8,10.6l2.3-1.3C42.9,168,42.1,164.8,41.8,161.6z"/>
		<path d="M44.3,149.9l-2.3-1.3c-1.6,3.3-2.7,6.8-2.8,10.6h2.7C42.1,155.9,42.9,152.7,44.3,149.9z"/>
	</g>
	<g>
		<text transform="matrix(0.88 0 0 1 11.9569 251.246)" class="st1 st3">FM</text>
	</g>
	<g>
		<text transform="matrix(0.88 0 0 1 39.9053 251.246)" class="st1 st3">LFM</text>
	</g>
	<g>
		<text transform="matrix(0.88 0 0 1 67.1889 251.246)" class="st1 st3">SOFT</text>
	</g>
	<g>
		<text transform="matrix(0.88 0 0 1 99.7018 251.246)" class="st1 st3">PWM</text>
	</g>
	<g>
		<text transform="matrix(0.88 0 0 1 11.9569 298.123)" class="st1 st3">FM</text>
	</g>
	<g>
		<text transform="matrix(0.7719 0 0 1 35.0783 298.123)" class="st1 st3">V/OCT</text>
	</g>
	<g>
		<text transform="matrix(0.88 0 0 1 66.8593 298.123)" class="st1 st3">SYNC</text>
	</g>
	<g>
		<text transform="matrix(0.88 0 0 1 99.7018 298.123)" class="st1 st3">PWM</text>
	</g>
	<path class="st4" d="M113.6,351.3H16.9c-7.2,0-13.1-5.9-13.1-13.1v-22.7c0-7.2,5.9-13.1,13.1-13.1h96.7c7.2,0,13.1,5.9,13.1,13.1
		v22.7C126.7,345.4,120.8,351.3,113.6,351.3z"/>
	<g>
		<text transform="matrix(0.88 0 0 1 9.8512 344.0973)" class="st5 st1 st3">SIN</text>
	</g>
	<g>
		<text transform="matrix(0.88 0 0 1 41.075 344.0973)" class="st5 st1 st3">TRI</text>
	</g>
	<g>
		<text transform="matrix(0.88 0 0 1 68.9082 344.0973)" class="st5 st1 st3">SAW</text>
	</g>
	<g>
		<text transform="matrix(0.88 0 0 1 100.9782 344.0973)" class="st5 st1 st3">SQR</text>
	</g>
	<g>
		<text transform="matrix(1 0 0 1 48.3379 20.5088)" class="st6 st7">VCO</text>
	</g>
	<path class="st8" d="M113.6,351.2H16.9c-7.2,0-13.1-5.9-13.1-13.1v-66.3c0-7.2,5.9-13.1,13.1-13.1h96.7c7.2,0,13.1,5.9,13.1,13.1
		v66.3C126.7,345.4,120.8,351.2,113.6,351.2z"/>
	<g id="pips_-_fewest_00000170987537802816162730000014627788305749528722_">
		<g>
			<g>
				<defs>
					<rect id="SVGID_1_" x="96.8" y="214.6" width="27.8" height="25.6"/>
				</defs>
				<clipPath id="SVGID_00000144318084231555721290000010058843414198763674_">
					<use xlink:href="#SVGID_1_"  style="overflow:visible;"/>
				</clipPath>
				<g style="clip-path:url(#SVGID_00000144318084231555721290000010058843414198763674_);">
					<g>
						<defs>
							<rect id="SVGID_00000021091673376716962410000012739169988940295311_" x="96.8" y="214.6" width="27.8" height="25.6"/>
						</defs>
						<clipPath id="SVGID_00000057826432755604476280000015150726838385515409_">
							<use xlink:href="#SVGID_00000021091673376716962410000012739169988940295311_"  style="overflow:visible;"/>
						</clipPath>
						<path style="clip-path:url(#SVGID_00000057826432755604476280000015150726838385515409_);" d="M116.4,217.4l0.7-1.2
							c-1.7-0.9-3.7-1.5-5.8-1.5v1.4C113.2,216.1,114.9,216.6,116.4,217.4"/>
					</g>
					<g>
						<defs>
							<rect id="SVGID_00000107584250986651595390000005561188891615603873_" x="96.8" y="214.6" width="27.8" height="25.6"/>
						</defs>
						<clipPath id="SVGID_00000087379198829059576580000003366213114995278010_">
							<use xlink:href="#SVGID_00000107584250986651595390000005561188891615603873_"  style="overflow:visible;"/>
						</clipPath>
						<path style="clip-path:url(#SVGID_00000087379198829059576580000003366213114995278010_);" d="M121.2,221.7l1.2-0.7
							c-1.1-1.7-2.5-3.1-4.2-4.2l-0.7,1.2C119,218.9,120.3,220.2,121.2,221.7"/>
					</g>
					<g>
						<defs>
							<rect id="SVGID_00000180359926990074807880000003087374457769692836_" x="96.8" y="214.6" width="27.8" height="25.6"/>
						</defs>
						<clipPath id="SVGID_00000111899956565012474950000002930282957659636616_">
							<use xlink:href="#SVGID_00000180359926990074807880000003087374457769692836_"  style="overflow:visible;"/>
						</clipPath>
						<path style="clip-path:url(#SVGID_00000111899956565012474950000002930282957659636616_);" d="M103.9,218l-0.7-1.2
							c-1.7,1.1-3.1,2.5-4.2,4.2l1.2,0.7C101.2,220.2,102.5,218.9,103.9,218"/>
					</g>
					<g>
						<defs>
							<rect id="SVGID_00000075847822797191383670000015827235171447258023_" x="96.8" y="214.6" width="27.8" height="25.6"/>
						</defs>
						<clipPath id="SVGID_00000040564550204567187200000003856954119493290158_">
							<use xlink:href="#SVGID_00000075847822797191383670000015827235171447258023_"  style="overflow:visible;"/>
						</clipPath>
						<path style="clip-path:url(#SVGID_00000040564550204567187200000003856954119493290158_);" d="M123.2,227.8h1.4
							c-0.1-2.1-0.6-4-1.5-5.8l-1.2,0.7C122.6,224.3,123.1,226,123.2,227.8"/>
					</g>
					<g>
						<defs>
							<rect id="SVGID_00000170994154971367637810000006640156211116243122_" x="96.8" y="214.6" width="27.8" height="25.6"/>
						</defs>
						<clipPath id="SVGID_00000070095505921341010930000004269922457691383729_">
							<use xlink:href="#SVGID_00000170994154971367637810000006640156211116243122_"  style="overflow:visible;"/>
						</clipPath>
						<path style="clip-path:url(#SVGID_00000070095505921341010930000004269922457691383729_);" d="M110.1,216v-1.4
							c-2.1,0.1-4,0.6-5.8,1.5l0.7,1.2C106.6,216.6,108.3,216.1,110.1,216"/>
					</g>
					<g>
						<defs>
							<rect id="SVGID_00000116212953306272109140000000445220423908609936_" x="96.8" y="214.6" width="27.8" height="25.6"/>
						</defs>
						<clipPath id="SVGID_00000153705627966133334160000002653978998961315505_">
							<use xlink:href="#SVGID_00000116212953306272109140000000445220423908609936_"  style="overflow:visible;"/>
						</clipPath>
						<path style="clip-path:url(#SVGID_00000153705627966133334160000002653978998961315505_);" d="M100.2,235.3L99,236
							c1.1,1.7,2.5,3.1,4.2,4.2l0.7-1.2C102.5,238,101.2,236.7,100.2,235.3"/>
					</g>
					<g>
						<defs>
							<rect id="SVGID_00000080166023864122511450000003732099608573578645_" x="96.8" y="214.6" width="27.8" height="25.6"/>
						</defs>
						<clipPath id="SVGID_00000140007089140503681020000004202752203376619697_">
							<use xlink:href="#SVGID_00000080166023864122511450000003732099608573578645_"  style="overflow:visible;"/>
						</clipPath>
						<path style="clip-path:url(#SVGID_00000140007089140503681020000004202752203376619697_);" d="M117.5,239l0.7,1.2
							c1.7-1.1,3.1-2.5,4.2-4.2l-1.2-0.7C120.2,236.7,119,238,117.5,239"/>
					</g>
					<g>
						<defs>
							<rect id="SVGID_00000145756831786392667460000005829128259740435614_" x="96.8" y="214.6" width="27.8" height="25.6"/>
						</defs>
						<clipPath id="SVGID_00000183247201946482859670000000107448944673478070_">
							<use xlink:href="#SVGID_00000145756831786392667460000005829128259740435614_"  style="overflow:visible;"/>
						</clipPath>
						<path style="clip-path:url(#SVGID_00000183247201946482859670000000107448944673478070_);" d="M123.2,229.1
							c-0.1,1.8-0.6,3.5-1.4,5.1l1.2,0.7c0.9-1.7,1.5-3.7,1.5-5.8H123.2z"/>
					</g>
					<g>
						<defs>
							<rect id="SVGID_00000000928286709632550450000014033289818983583629_" x="96.8" y="214.6" width="27.8" height="25.6"/>
						</defs>
						<clipPath id="SVGID_00000032625118229978889470000015392136202617618856_">
							<use xlink:href="#SVGID_00000000928286709632550450000014033289818983583629_"  style="overflow:visible;"/>
						</clipPath>
						<path style="clip-path:url(#SVGID_00000032625118229978889470000015392136202617618856_);" d="M98.2,229.1h-1.4
							c0.1,2.1,0.6,4,1.5,5.8l1.2-0.7C98.8,232.6,98.3,230.9,98.2,229.1"/>
					</g>
					<g>
						<defs>
							<rect id="SVGID_00000119119876585120666400000000467784216846526857_" x="96.8" y="214.6" width="27.8" height="25.6"/>
						</defs>
						<clipPath id="SVGID_00000157274451332309838140000002607290591327268227_">
							<use xlink:href="#SVGID_00000119119876585120666400000000467784216846526857_"  style="overflow:visible;"/>
						</clipPath>
						<path style="clip-path:url(#SVGID_00000157274451332309838140000002607290591327268227_);" d="M99.6,222.8l-1.2-0.7
							c-0.9,1.7-1.5,3.7-1.5,5.8h1.4C98.3,226,98.8,224.3,99.6,222.8"/>
					</g>
				</g>
			</g>
		</g>
	</g>
	<g id="pips_-_fewest_00000003082445726815061340000011822725961358549125_">
		<g>
			<g>
				<defs>
					<rect id="SVGID_00000083069466172721666860000016867394863332777639_" x="4.8" y="214.6" width="27.8" height="25.6"/>
				</defs>
				<clipPath id="SVGID_00000158000759702269790130000010348167948892692107_">
					<use xlink:href="#SVGID_00000083069466172721666860000016867394863332777639_"  style="overflow:visible;"/>
				</clipPath>
				<g style="clip-path:url(#SVGID_00000158000759702269790130000010348167948892692107_);">
					<g>
						<defs>
							<rect id="SVGID_00000015325475083006254350000005513208478355910813_" x="4.8" y="214.6" width="27.8" height="25.6"/>
						</defs>
						<clipPath id="SVGID_00000114046905689962175110000014754744033733400468_">
							<use xlink:href="#SVGID_00000015325475083006254350000005513208478355910813_"  style="overflow:visible;"/>
						</clipPath>
						<path style="clip-path:url(#SVGID_00000114046905689962175110000014754744033733400468_);" d="M24.4,217.4l0.7-1.2
							c-1.7-0.9-3.7-1.5-5.8-1.5v1.4C21.1,216.1,22.9,216.6,24.4,217.4"/>
					</g>
					<g>
						<defs>
							<rect id="SVGID_00000028299078579174670260000018358234433140250013_" x="4.8" y="214.6" width="27.8" height="25.6"/>
						</defs>
						<clipPath id="SVGID_00000134231306007004272660000010037361059491124145_">
							<use xlink:href="#SVGID_00000028299078579174670260000018358234433140250013_"  style="overflow:visible;"/>
						</clipPath>
						<path style="clip-path:url(#SVGID_00000134231306007004272660000010037361059491124145_);" d="M29.2,221.7l1.2-0.7
							c-1.1-1.7-2.5-3.1-4.2-4.2l-0.7,1.2C27,218.9,28.2,220.2,29.2,221.7"/>
					</g>
					<g>
						<defs>
							<rect id="SVGID_00000070112920811084557770000015774262501118763964_" x="4.8" y="214.6" width="27.8" height="25.6"/>
						</defs>
						<clipPath id="SVGID_00000089542165199132323220000006947377756236947868_">
							<use xlink:href="#SVGID_00000070112920811084557770000015774262501118763964_"  style="overflow:visible;"/>
						</clipPath>
						<path style="clip-path:url(#SVGID_00000089542165199132323220000006947377756236947868_);" d="M11.9,218l-0.7-1.2
							c-1.7,1.1-3.1,2.5-4.2,4.2l1.2,0.7C9.2,220.2,10.4,218.9,11.9,218"/>
					</g>
					<g>
						<defs>
							<rect id="SVGID_00000036969430392276114410000005117215435195805620_" x="4.8" y="214.6" width="27.8" height="25.6"/>
						</defs>
						<clipPath id="SVGID_00000057827784971106334880000015821235938996071577_">
							<use xlink:href="#SVGID_00000036969430392276114410000005117215435195805620_"  style="overflow:visible;"/>
						</clipPath>
						<path style="clip-path:url(#SVGID_00000057827784971106334880000015821235938996071577_);" d="M31.2,227.8h1.4
							c-0.1-2.1-0.6-4-1.5-5.8l-1.2,0.7C30.6,224.3,31.1,226,31.2,227.8"/>
					</g>
					<g>
						<defs>
							<rect id="SVGID_00000087377884806459182110000005445341576344283063_" x="4.8" y="214.6" width="27.8" height="25.6"/>
						</defs>
						<clipPath id="SVGID_00000138569351303325908440000008698169824076923021_">
							<use xlink:href="#SVGID_00000087377884806459182110000005445341576344283063_"  style="overflow:visible;"/>
						</clipPath>
						<path style="clip-path:url(#SVGID_00000138569351303325908440000008698169824076923021_);" d="M18.1,216v-1.4
							c-2.1,0.1-4,0.6-5.8,1.5l0.7,1.2C14.5,216.6,16.2,216.1,18.1,216"/>
					</g>
					<g>
						<defs>
							<rect id="SVGID_00000113347307769041877470000001688235237892166306_" x="4.8" y="214.6" width="27.8" height="25.6"/>
						</defs>
						<clipPath id="SVGID_00000032643797710758360530000015239380507246815408_">
							<use xlink:href="#SVGID_00000113347307769041877470000001688235237892166306_"  style="overflow:visible;"/>
						</clipPath>
						<path style="clip-path:url(#SVGID_00000032643797710758360530000015239380507246815408_);" d="M8.2,235.3L7,236
							c1.1,1.7,2.5,3.1,4.2,4.2l0.7-1.2C10.4,238,9.2,236.7,8.2,235.3"/>
					</g>
					<g>
						<defs>
							<rect id="SVGID_00000095327166119471906240000013462205048892316849_" x="4.8" y="214.6" width="27.8" height="25.6"/>
						</defs>
						<clipPath id="SVGID_00000148633723184571442740000009088172743560909465_">
							<use xlink:href="#SVGID_00000095327166119471906240000013462205048892316849_"  style="overflow:visible;"/>
						</clipPath>
						<path style="clip-path:url(#SVGID_00000148633723184571442740000009088172743560909465_);" d="M25.5,239l0.7,1.2
							c1.7-1.1,3.1-2.5,4.2-4.2l-1.2-0.7C28.2,236.7,27,238,25.5,239"/>
					</g>
					<g>
						<defs>
							<rect id="SVGID_00000108991515419597844010000010559012014914470039_" x="4.8" y="214.6" width="27.8" height="25.6"/>
						</defs>
						<clipPath id="SVGID_00000114771568057179175610000003586373510940978565_">
							<use xlink:href="#SVGID_00000108991515419597844010000010559012014914470039_"  style="overflow:visible;"/>
						</clipPath>
						<path style="clip-path:url(#SVGID_00000114771568057179175610000003586373510940978565_);" d="M31.2,229.1
							c-0.1,1.8-0.6,3.5-1.4,5.1l1.2,0.7c0.9-1.7,1.5-3.7,1.5-5.8H31.2z"/>
					</g>
					<g>
						<defs>
							<rect id="SVGID_00000015333346056499539900000006025606383889396399_" x="4.8" y="214.6" width="27.8" height="25.6"/>
						</defs>
						<clipPath id="SVGID_00000023243015172174796460000005481423940097558424_">
							<use xlink:href="#SVGID_00000015333346056499539900000006025606383889396399_"  style="overflow:visible;"/>
						</clipPath>
						<path style="clip-path:url(#SVGID_00000023243015172174796460000005481423940097558424_);" d="M6.2,229.1H4.8
							c0.1,2.1,0.6,4,1.5,5.8l1.2-0.7C6.8,232.6,6.3,230.9,6.2,229.1"/>
					</g>
					<g>
						<defs>
							<rect id="SVGID_00000159469739470137265880000017544197470070247812_" x="4.8" y="214.6" width="27.8" height="25.6"/>
						</defs>
						<clipPath id="SVGID_00000181767132531221972710000016998028127009296294_">
							<use xlink:href="#SVGID_00000159469739470137265880000017544197470070247812_"  style="overflow:visible;"/>
						</clipPath>
						<path style="clip-path:url(#SVGID_00000181767132531221972710000016998028127009296294_);" d="M7.6,222.8l-1.2-0.7
							c-0.9,1.7-1.5,3.7-1.5,5.8h1.4C6.3,226,6.8,224.3,7.6,222.8"/>
					</g>
				</g>
			</g>
		</g>
	</g>
</g>
<g id="components" class="st31">
	<circle id="Wave_Light" class="st32" cx="88" cy="46.5" r="2.9"/>
	<circle id="Pulse_Width" class="st33" cx="64.7" cy="159.6" r="16.1"/>
	<circle id="Soft_Button" class="st33" cx="80" cy="228.1" r="8"/>
	<circle id="LFM_Button" class="st33" cx="49.4" cy="228.1" r="8"/>
	<circle id="Sync_Input" class="st34" cx="80" cy="274.2" r="11.3"/>
	<circle id="Tri_Out" class="st35" cx="49.4" cy="320.2" r="11.3"/>
	
		<ellipse id="Sin_Out" transform="matrix(0.9999 -1.020248e-02 1.020248e-02 0.9999 -3.2659 0.2075)" class="st35" cx="18.7" cy="320.2" rx="11.3" ry="11.3"/>
	<circle id="Saw_Out" class="st35" cx="80" cy="320.2" r="11.3"/>
	<circle id="V_x2F_oct_input" class="st34" cx="49.4" cy="274.2" r="11.3"/>
	<circle id="PWM_Input" class="st34" cx="110.8" cy="274.2" r="11.3"/>
	<circle id="Square_Out" class="st35" cx="110.7" cy="320.2" r="11.3"/>
	<circle id="PWM_Atten." class="st33" cx="110.7" cy="228.1" r="8"/>
	<circle id="Frequency" class="st33" cx="64.8" cy="84.4" r="16.1"/>
	
		<ellipse id="FM_Input" transform="matrix(0.9999 -1.020248e-02 1.020248e-02 0.9999 -2.7965 0.2051)" class="st34" cx="18.7" cy="274.2" rx="11.3" ry="11.3"/>
	<circle id="FM_Atten." class="st33" cx="18.7" cy="228.1" r="8"/>
</g>
</svg>
