<?xml version="1.0" encoding="utf-8"?>
<!-- Generator: Adobe Illustrator 28.1.0, SVG Export Plug-In . SVG Version: 6.00 Build 0)  -->
<svg version="1.1" xmlns="http://www.w3.org/2000/svg" xmlns:xlink="http://www.w3.org/1999/xlink" x="0px" y="0px"
	 viewBox="0 0 129.4 364.3" style="enable-background:new 0 0 129.4 364.3;" xml:space="preserve">
<style type="text/css">
	.st0{fill:#EDEDED;stroke:#9D9D9E;stroke-width:0.25;stroke-miterlimit:10;}
	.st1{font-family:'GillSans-Bold';}
	.st2{font-size:10px;}
	.st3{font-size:8px;}
	.st4{fill:#231F20;}
	.st5{fill:#FFFFFF;}
	.st6{font-size:11px;}
	.st7{display:none;}
	.st8{display:inline;fill:#FF00FF;}
	.st9{display:inline;fill:#FF0000;}
	.st10{display:inline;fill:#00FF00;}
	.st11{display:inline;fill:#0000FF;}
	.st12{display:inline;}
	.st13{clip-path:url(#SVGID_00000114796221240378057190000009586518183451509122_);}
	.st14{clip-path:url(#SVGID_00000021108320091356786710000005246012091401896847_);}
	.st15{clip-path:url(#SVGID_00000146500319510660315490000017071823456009541040_);}
	.st16{clip-path:url(#SVGID_00000122689149525814024830000005792845501400807342_);}
	.st17{display:inline;fill:none;stroke:#231F20;stroke-miterlimit:10;}
</style>
<g id="artwork">
	<rect x="0" y="0" class="st0" width="129.4" height="364.3"/>
	<g>
		<text transform="matrix(0.88 0 0 1 43.4738 116.9168)" class="st1 st2">Frequency</text>
	</g>
	<g>
		<text transform="matrix(0.88 0 0 1 39.6648 191.3396)" class="st1 st2">Pulse Width</text>
	</g>
	<g>
		<path d="M84.5,83.7h2.3c-0.1-3.3-1-6.4-2.4-9.1l-2,1.1C83.7,78.1,84.4,80.9,84.5,83.7z"/>
		<path d="M84.5,85.7c-0.1,2.9-0.9,5.6-2.1,8l2,1.1c1.4-2.8,2.3-5.8,2.4-9.1H84.5z"/>
		<path d="M73.8,67.1l1.1-2c-2.8-1.4-5.8-2.3-9.1-2.4V65C68.7,65.2,71.4,65.9,73.8,67.1z"/>
		<path d="M81.4,74l1.9-1.1c-1.7-2.7-4-5-6.7-6.7l-1.1,1.9C77.9,69.7,79.9,71.7,81.4,74z"/>
		<path d="M54.1,68.1L53,66.2c-2.7,1.7-5,4-6.7,6.7l1.9,1.1C49.8,71.7,51.8,69.7,54.1,68.1z"/>
		<path d="M63.8,65v-2.3c-3.3,0.1-6.4,1-9.1,2.4l1.1,2C58.3,65.9,61,65.2,63.8,65z"/>
		<path d="M48.2,95.5l-1.9,1.1c1.7,2.7,4,5,6.7,6.7l1.1-1.9C51.8,99.8,49.8,97.8,48.2,95.5z"/>
		<path d="M75.6,101.3l1.1,1.9c2.7-1.7,5-4,6.7-6.7l-1.9-1.1C79.9,97.8,77.9,99.8,75.6,101.3z"/>
		<path d="M45.1,85.7h-2.3c0.1,3.3,1,6.4,2.4,9.1l2-1.1C46,91.3,45.3,88.6,45.1,85.7z"/>
		<path d="M47.2,75.7l-2-1.1c-1.4,2.8-2.3,5.8-2.4,9.1h2.3C45.3,80.9,46,78.1,47.2,75.7z"/>
	</g>
	<g>
		<path d="M84.5,159.1h2.3c-0.1-3.3-1-6.4-2.4-9.1l-2,1.1C83.7,153.5,84.4,156.2,84.5,159.1z"/>
		<path d="M84.5,161.1c-0.1,2.9-0.9,5.6-2.1,8l2,1.1c1.4-2.8,2.3-5.8,2.4-9.1H84.5z"/>
		<path d="M73.8,142.5l1.1-2c-2.8-1.4-5.8-2.3-9.1-2.4v2.3C68.7,140.5,71.4,141.2,73.8,142.5z"/>
		<path d="M81.4,149.3l1.9-1.1c-1.7-2.7-4-5-6.7-6.7l-1.1,1.9C77.9,145,79.9,147,81.4,149.3z"/>
		<path d="M54.1,143.5l-1.1-1.9c-2.7,1.7-5,4-6.7,6.7l1.9,1.1C49.8,147,51.8,145,54.1,143.5z"/>
		<path d="M63.8,140.3v-2.3c-3.3,0.1-6.4,1-9.1,2.4l1.1,2C58.3,141.2,61,140.5,63.8,140.3z"/>
		<path d="M48.2,170.8l-1.9,1.1c1.7,2.7,4,5,6.7,6.7l1.1-1.9C51.8,175.1,49.8,173.1,48.2,170.8z"/>
		<path d="M75.6,176.6l1.1,1.9c2.7-1.7,5-4,6.7-6.7l-1.9-1.1C79.9,173.1,77.9,175.1,75.6,176.6z"/>
		<path d="M45.1,161.1h-2.3c0.1,3.3,1,6.4,2.4,9.1l2-1.1C46,166.6,45.3,163.9,45.1,161.1z"/>
		<path d="M47.2,151.1l-2-1.1c-1.4,2.8-2.3,5.8-2.4,9.1h2.3C45.3,156.2,46,153.5,47.2,151.1z"/>
	</g>
	<g>
		<text transform="matrix(0.88 0 0 1 13.2745 249.546)" class="st1 st3">FM</text>
	</g>
	<g>
		<text transform="matrix(0.88 0 0 1 41.8638 249.546)" class="st1 st3">LFM</text>
	</g>
	<g>
		<text transform="matrix(0.88 0 0 1 70.4281 249.546)" class="st1 st3">SOFT</text>
	</g>
	<g>
		<text transform="matrix(0.88 0 0 1 100.9807 249.546)" class="st1 st3">PWM</text>
	</g>
	<g>
		<text transform="matrix(0.88 0 0 1 13.2745 298.1232)" class="st1 st3">FM</text>
	</g>
	<g>
		<text transform="matrix(0.88 0 0 1 37.1011 298.1232)" class="st1 st3">V/OCT</text>
	</g>
	<g>
		<text transform="matrix(0.88 0 0 1 69.8729 298.1232)" class="st1 st3">SYNC</text>
	</g>
	<g>
		<text transform="matrix(0.88 0 0 1 100.9807 298.1232)" class="st1 st3">PWM</text>
	</g>
	<path class="st4" d="M113.6,351.3H16.9c-7.2,0-13.1-5.9-13.1-13.1v-22.7c0-7.2,5.9-13.1,13.1-13.1h96.7c7.2,0,13.1,5.9,13.1,13.1
		v22.7C126.7,345.4,120.8,351.3,113.6,351.3z"/>
	<g>
		<text transform="matrix(0.88 0 0 1 12.315 342.5973)" class="st5 st1 st3">SIN</text>
	</g>
	<g>
		<text transform="matrix(0.88 0 0 1 42.9932 342.5973)" class="st5 st1 st3">TRI</text>
	</g>
	<g>
		<text transform="matrix(0.88 0 0 1 71.0556 342.5973)" class="st5 st1 st3">SAW</text>
	</g>
	<g>
		<text transform="matrix(0.88 0 0 1 103.22 342.5973)" class="st5 st1 st3">SQR</text>
	</g>
	<g>
		<text transform="matrix(0.82 0 0 1 54.1074 20.5086)" class="st1 st6">VCO</text>
	</g>
</g>
<g id="components" class="st7">
	<circle id="Wave_Light" class="st8" cx="88" cy="46.5" r="2.9"/>
	<circle id="Pulse_Width" class="st9" cx="64.7" cy="159.6" r="16.1"/>
	<circle id="Soft_Button" class="st9" cx="80" cy="228.1" r="8"/>
	<circle id="LFM_Button" class="st9" cx="49.4" cy="228.1" r="8"/>
	<circle id="Sync_Input" class="st10" cx="80" cy="274.2" r="11.3"/>
	<circle id="Tri_Out" class="st11" cx="49.4" cy="320.2" r="11.3"/>
	<circle id="Sin_Out" class="st11" cx="18.7" cy="320.2" r="11.3"/>
	<circle id="Saw_Out" class="st11" cx="80" cy="320.2" r="11.3"/>
	<circle id="V_x2F_oct_input" class="st10" cx="49.4" cy="274.2" r="11.3"/>
	<circle id="PWM_Input" class="st10" cx="110.8" cy="274.2" r="11.3"/>
	<circle id="Square_Out" class="st11" cx="110.7" cy="320.2" r="11.3"/>
	<circle id="PWM_Atten." class="st9" cx="110.7" cy="228.1" r="8"/>
	<circle id="Frequency" class="st9" cx="64.8" cy="84.4" r="16.1"/>
	<circle id="FM_Input" class="st10" cx="18.7" cy="274.2" r="11.3"/>
	<circle id="FM_Atten." class="st9" cx="18.7" cy="228.1" r="8"/>
	<g id="pips_-_fewest_00000003082445726815061340000011822725961358549125_" class="st12">
		<g>
			<defs>
				<rect id="SVGID_1_" x="4.8" y="214.6" width="27.8" height="25.6"/>
			</defs>
			<clipPath id="SVGID_00000088130998275979279590000014911558180073039276_">
				<use xlink:href="#SVGID_1_"  style="overflow:visible;"/>
			</clipPath>
			<g style="clip-path:url(#SVGID_00000088130998275979279590000014911558180073039276_);">
				<defs>
					<rect id="SVGID_00000052809922952615355320000011481676976325902976_" x="4.8" y="214.6" width="27.8" height="25.6"/>
				</defs>
				<clipPath id="SVGID_00000023994203502499119760000017669500105511886727_">
					<use xlink:href="#SVGID_00000052809922952615355320000011481676976325902976_"  style="overflow:visible;"/>
				</clipPath>
				<path style="clip-path:url(#SVGID_00000023994203502499119760000017669500105511886727_);" d="M24.4,217.4l0.7-1.2
					c-1.7-0.9-3.7-1.5-5.8-1.5v1.4C21.1,216.1,22.9,216.6,24.4,217.4"/>
				<path style="clip-path:url(#SVGID_00000023994203502499119760000017669500105511886727_);" d="M29.2,221.7l1.2-0.7
					c-1.1-1.7-2.5-3.1-4.2-4.2l-0.7,1.2C27,218.9,28.2,220.2,29.2,221.7"/>
				<path style="clip-path:url(#SVGID_00000023994203502499119760000017669500105511886727_);" d="M11.9,218l-0.7-1.2
					c-1.7,1.1-3.1,2.5-4.2,4.2l1.2,0.7C9.2,220.2,10.4,218.9,11.9,218"/>
				<path style="clip-path:url(#SVGID_00000023994203502499119760000017669500105511886727_);" d="M31.2,227.8h1.4
					c-0.1-2.1-0.6-4-1.5-5.8l-1.2,0.7C30.6,224.3,31.1,226,31.2,227.8"/>
				<path style="clip-path:url(#SVGID_00000023994203502499119760000017669500105511886727_);" d="M18.1,216v-1.4
					c-2.1,0.1-4,0.6-5.8,1.5l0.7,1.2C14.5,216.6,16.2,216.1,18.1,216"/>
				<path style="clip-path:url(#SVGID_00000023994203502499119760000017669500105511886727_);" d="M8.2,235.3L7,236
					c1.1,1.7,2.5,3.1,4.2,4.2l0.7-1.2C10.4,238,9.2,236.7,8.2,235.3"/>
				<path style="clip-path:url(#SVGID_00000023994203502499119760000017669500105511886727_);" d="M25.5,239l0.7,1.2
					c1.7-1.1,3.1-2.5,4.2-4.2l-1.2-0.7C28.2,236.7,27,238,25.5,239"/>
				<path style="clip-path:url(#SVGID_00000023994203502499119760000017669500105511886727_);" d="M31.2,229.1
					c-0.1,1.8-0.6,3.5-1.4,5.1l1.2,0.7c0.9-1.7,1.5-3.7,1.5-5.8H31.2z"/>
				<path style="clip-path:url(#SVGID_00000023994203502499119760000017669500105511886727_);" d="M6.2,229.1H4.8
					c0.1,2.1,0.6,4,1.5,5.8l1.2-0.7C6.8,232.6,6.3,230.9,6.2,229.1"/>
				<path style="clip-path:url(#SVGID_00000023994203502499119760000017669500105511886727_);" d="M7.6,222.8l-1.2-0.7
					c-0.9,1.7-1.5,3.7-1.5,5.8h1.4C6.3,226,6.8,224.3,7.6,222.8"/>
			</g>
		</g>
	</g>
	<g id="pips_-_fewest_00000170987537802816162730000014627788305749528722_" class="st12">
		<g>
			<defs>
				<rect id="SVGID_00000009573924850690252840000009762634760841228986_" x="96.8" y="214.6" width="27.8" height="25.6"/>
			</defs>
			<clipPath id="SVGID_00000142171350037380025250000011856141277406520458_">
				<use xlink:href="#SVGID_00000009573924850690252840000009762634760841228986_"  style="overflow:visible;"/>
			</clipPath>
			<g style="clip-path:url(#SVGID_00000142171350037380025250000011856141277406520458_);">
				<defs>
					<rect id="SVGID_00000083062418564123241310000010703976614066146492_" x="96.8" y="214.6" width="27.8" height="25.6"/>
				</defs>
				<clipPath id="SVGID_00000028315232868807370110000015062482155545389993_">
					<use xlink:href="#SVGID_00000083062418564123241310000010703976614066146492_"  style="overflow:visible;"/>
				</clipPath>
				<path style="clip-path:url(#SVGID_00000028315232868807370110000015062482155545389993_);" d="M116.4,217.4l0.7-1.2
					c-1.7-0.9-3.7-1.5-5.8-1.5v1.4C113.2,216.1,114.9,216.6,116.4,217.4"/>
				<path style="clip-path:url(#SVGID_00000028315232868807370110000015062482155545389993_);" d="M121.2,221.7l1.2-0.7
					c-1.1-1.7-2.5-3.1-4.2-4.2l-0.7,1.2C119,218.9,120.3,220.2,121.2,221.7"/>
				<path style="clip-path:url(#SVGID_00000028315232868807370110000015062482155545389993_);" d="M103.9,218l-0.7-1.2
					c-1.7,1.1-3.1,2.5-4.2,4.2l1.2,0.7C101.2,220.2,102.5,218.9,103.9,218"/>
				<path style="clip-path:url(#SVGID_00000028315232868807370110000015062482155545389993_);" d="M123.2,227.8h1.4
					c-0.1-2.1-0.6-4-1.5-5.8l-1.2,0.7C122.6,224.3,123.1,226,123.2,227.8"/>
				<path style="clip-path:url(#SVGID_00000028315232868807370110000015062482155545389993_);" d="M110.1,216v-1.4
					c-2.1,0.1-4,0.6-5.8,1.5l0.7,1.2C106.6,216.6,108.3,216.1,110.1,216"/>
				<path style="clip-path:url(#SVGID_00000028315232868807370110000015062482155545389993_);" d="M100.2,235.3L99,236
					c1.1,1.7,2.5,3.1,4.2,4.2l0.7-1.2C102.5,238,101.2,236.7,100.2,235.3"/>
				<path style="clip-path:url(#SVGID_00000028315232868807370110000015062482155545389993_);" d="M117.5,239l0.7,1.2
					c1.7-1.1,3.1-2.5,4.2-4.2l-1.2-0.7C120.2,236.7,119,238,117.5,239"/>
				<path style="clip-path:url(#SVGID_00000028315232868807370110000015062482155545389993_);" d="M123.2,229.1
					c-0.1,1.8-0.6,3.5-1.4,5.1l1.2,0.7c0.9-1.7,1.5-3.7,1.5-5.8H123.2z"/>
				<path style="clip-path:url(#SVGID_00000028315232868807370110000015062482155545389993_);" d="M98.2,229.1h-1.4
					c0.1,2.1,0.6,4,1.5,5.8l1.2-0.7C98.8,232.6,98.3,230.9,98.2,229.1"/>
				<path style="clip-path:url(#SVGID_00000028315232868807370110000015062482155545389993_);" d="M99.6,222.8l-1.2-0.7
					c-0.9,1.7-1.5,3.7-1.5,5.8h1.4C98.3,226,98.8,224.3,99.6,222.8"/>
			</g>
		</g>
	</g>
	<path class="st17" d="M113.6,351.2H16.9c-7.2,0-13.1-5.9-13.1-13.1v-66.3c0-7.2,5.9-13.1,13.1-13.1h96.7c7.2,0,13.1,5.9,13.1,13.1
		v66.3C126.7,345.4,120.8,351.2,113.6,351.2z"/>
</g>
</svg>
